<svg width="16" height="16" viewBox="0 0 16 16" fill="none" xmlns="http://www.w3.org/2000/svg">
<path d="M8 0C3.58873 0 0 3.58873 0 8C0 12.4113 3.589 16 8 16C12.411 16 16 12.4113 16 8C16 3.58873 12.4113 0 8 0Z" fill="#008C56"/>
<path d="M11.5349 4.7013C11.7055 4.91094 11.8799 5.13393 12.0551 5.36681C12.092 5.84164 12.1019 6.27668 12.1392 6.75231C12.1339 6.95581 12.0714 7.2258 12.0121 7.25144C12.0121 7.25144 11.9216 7.30352 11.861 7.24583C11.8169 7.22821 11.6409 6.95233 11.6409 6.95233C11.5509 6.86981 11.4908 6.89331 11.4267 6.95233C11.2499 7.12299 11.1701 7.44265 11.0499 7.66271C11.0189 7.71185 10.9316 7.75378 10.8347 7.65897C10.6328 7.38337 10.6931 7.01242 10.7046 6.95501L10.7019 6.96649C10.4827 7.21379 10.5796 7.62319 10.6293 7.71132C10.7017 7.85606 10.7602 7.94873 10.9009 8.02003C11.0291 8.11431 11.129 8.05555 11.184 7.98932C11.313 7.85579 11.3146 7.51396 11.3752 7.44613C11.4177 7.32194 11.5239 7.34331 11.576 7.39832C11.6262 7.4707 11.6858 7.5177 11.7598 7.55695C11.8799 7.66298 12.0236 7.68247 12.1651 7.58553C12.2618 7.53132 12.3246 7.46081 12.3812 7.32168C12.4418 7.15931 12.4119 6.30766 12.3983 5.83389C12.4891 5.96182 12.5788 6.09267 12.668 6.22487C12.7073 6.64068 12.7249 7.05035 12.7121 7.44292C12.7027 7.5209 12.9845 7.20978 12.9826 7.06236C12.9813 6.93337 12.9829 6.8164 12.9826 6.70771C13.1196 6.92578 13.2509 7.14733 13.3765 7.37215C13.454 7.33102 13.4275 6.89251 13.3784 6.83189C13.2475 6.61237 13.0798 6.37496 12.95 6.19122C12.9244 5.95941 12.8894 5.68594 12.8737 5.60235C12.8488 5.47176 12.824 5.27548 12.7866 5.12058C12.7764 5.05996 12.7452 4.86661 12.7551 4.84818C12.7703 4.80492 12.828 4.84952 12.8566 4.79931C12.899 4.75284 12.7091 4.26092 12.6127 4.12045C12.578 4.05742 12.5153 4.07932 12.4378 4.1816C12.366 4.2489 12.3921 4.40273 12.4197 4.54881C12.491 4.92136 12.5548 5.30058 12.6053 5.679C12.5118 5.54013 12.398 5.37242 12.2859 5.21058L12.2714 5.13687C12.2714 5.1302 12.2559 4.83216 12.2429 4.76112C12.2405 4.73228 12.2338 4.724 12.264 4.72774C12.296 4.75471 12.3003 4.75605 12.3203 4.76513C12.3526 4.771 12.3809 4.71626 12.3614 4.66578L12.0613 4.1111C12.0492 4.09935 12.0356 4.0868 12.0201 4.0844C12.0046 4.08199 11.9876 4.08974 11.9686 4.11778C11.9451 4.13823 11.9263 4.16352 11.9134 4.19191C11.9005 4.22029 11.894 4.25112 11.8941 4.28229C11.9029 4.41341 11.9264 4.54774 11.9352 4.67914L11.9448 4.73175C11.9343 4.71819 11.9231 4.70509 11.9114 4.69249C11.6556 4.42383 12.0289 4.64869 11.8626 4.44092C11.7218 4.28656 11.6807 4.23742 11.5605 4.14448C11.5002 4.10549 11.4636 4.03098 11.4438 4.15784C11.4361 4.26947 11.4278 4.39846 11.4353 4.49246C11.4339 4.54507 11.4882 4.64335 11.5349 4.7013ZM5.23472 6.6754C5.23178 6.724 5.36878 6.78302 5.37706 6.89519C5.39655 6.94139 5.34768 7.08987 5.38854 7.10349C5.42593 7.11898 5.47801 7.00094 5.4975 6.89118C5.50845 6.83109 5.4505 6.62092 5.35222 6.58326C5.33689 6.57987 5.32116 6.57861 5.30549 6.57952C5.25795 6.58299 5.21549 6.60836 5.23472 6.6754Z" fill="white"/>
<path d="M11.9495 5.86139C11.9459 5.86083 11.9423 5.8612 11.9388 5.86246C11.9388 5.86246 11.3556 6.2772 11.3412 6.29189C11.2832 6.34317 11.3123 6.52397 11.3412 6.50313C11.3831 6.51916 11.9701 6.12124 11.9589 6.07477C11.9845 6.07611 11.9971 5.86994 11.9495 5.86139ZM13.0218 4.91574C13.0423 4.97877 12.9905 5.182 13.0333 5.20069C13.0725 5.22179 13.1275 5.06022 13.1481 4.91093C13.1593 4.82921 13.0989 4.54239 12.9961 4.49112C12.988 4.48894 12.9797 4.48769 12.9713 4.48738C12.9125 4.48524 12.8484 4.52984 12.8738 4.61744C12.8589 4.66524 12.9991 4.82708 13.0218 4.91574ZM11.6213 5.8662C11.6235 5.74789 11.6349 5.59033 11.6413 5.49232C11.644 5.45546 11.6528 5.4146 11.6881 5.40526C11.7236 5.39591 11.785 5.44078 11.7856 5.40232C11.7791 5.32701 11.7639 5.21591 11.7215 5.1633C11.7108 5.14792 11.6967 5.13525 11.6803 5.1263C11.6639 5.11734 11.6456 5.11237 11.6269 5.11176C11.5652 5.10882 11.4993 5.14888 11.4824 5.23327C11.4827 5.28294 11.5049 5.31045 11.5006 5.35558C11.4942 5.38149 11.4675 5.39831 11.4039 5.36814C11.4138 5.35906 11.3628 5.28695 11.3628 5.28695C11.3134 5.25677 11.2472 5.28855 11.2042 5.31659C11.1887 5.34595 11.1795 5.37816 11.177 5.41124C11.1745 5.44431 11.1789 5.47755 11.1897 5.50888C11.2611 5.64 11.5049 5.86406 11.6213 5.8662ZM9.14114 6.6388L9.14221 6.63773L9.14328 6.63666L9.14435 6.6356V6.63373C9.14458 6.63048 9.14422 6.62722 9.14328 6.62411L9.08773 6.59153L7.99493 6.58672C7.98436 6.58312 7.97437 6.578 7.96529 6.5715L7.96342 6.56963L7.96262 6.56856L7.96155 6.56749L7.96075 6.56563L7.95968 6.56456V6.56349L7.95861 6.56242V6.55388L7.95968 6.55281L7.96075 6.55094C7.96609 6.54373 7.97891 6.53705 7.9952 6.53091C8.25611 6.49539 8.71973 6.41928 8.75044 5.97356C8.74563 5.74122 8.65109 5.58926 8.36614 5.54707C8.15677 5.56336 8.00748 5.76579 8.03152 5.98878C8.02164 6.04887 8.05181 6.16664 7.99039 6.17999C7.58873 6.21658 7.15022 6.46842 7.13554 6.64841H7.13447L7.1334 6.64948L7.13153 6.65055H7.12966L7.12672 6.65162H7.12111C7.11986 6.6513 7.11861 6.65094 7.11738 6.65055C7.0912 6.64334 7.05755 6.60008 7.0629 6.53972C7.04767 6.22833 6.94619 5.87608 6.78756 5.60475C6.73094 5.54813 6.70611 5.52517 6.69008 5.5225H6.68234C6.68074 5.52303 6.67913 5.52437 6.67753 5.52543L6.67459 5.5273C6.66231 5.53665 6.64789 5.55775 6.61531 5.58071C6.56056 5.64294 6.55068 5.68647 6.55415 5.81119C6.55735 5.82427 6.65804 6.10468 6.74349 6.30177C6.80118 6.50661 6.85432 6.74108 6.81533 6.96247C6.68047 7.25517 6.4094 7.51769 6.14795 7.66057C6.01469 7.70329 5.89959 7.68861 5.86888 7.6595L5.86781 7.65843C5.84254 7.64092 5.82239 7.61699 5.80944 7.58911C5.79648 7.56123 5.79119 7.5304 5.7941 7.4998V7.49873L5.79517 7.49766C6.01576 7.34383 6.26813 7.21938 6.46549 6.80438C6.52371 6.64574 6.5416 6.5504 6.48365 6.30524C6.46095 6.21391 6.43317 6.1386 6.37095 6.07397L6.37202 6.0729C6.40967 6.05501 6.50715 6.12685 6.5221 6.08145C6.49914 5.96448 6.41982 5.80718 6.32982 5.7268C6.25131 5.65549 6.16558 5.64721 6.09374 5.71237C6.01256 5.75751 5.99546 5.91961 6.03445 6.06142C6.07772 6.16824 6.19496 6.18694 6.27828 6.40192V6.40299C6.28015 6.41634 6.30685 6.56349 6.26493 6.62278C6.23074 6.72907 5.79303 7.07437 5.76205 7.0952C5.76111 7.09589 5.76013 7.09651 5.75912 7.09707L5.75805 7.09814L5.75698 7.09921L5.75591 7.10028H5.75378L5.75298 7.09921V7.09814L5.75191 7.09627C5.75057 7.08773 5.75297 7.06583 5.75191 7.03031C5.74897 6.96568 5.77567 6.81933 5.77381 6.79423V6.79316L5.773 6.79209V6.79102H5.77194C5.62719 6.88449 5.57939 7.17105 5.55295 7.25571C5.18654 7.50888 4.77047 7.69715 4.53092 7.9538C4.4062 8.14875 5.39084 7.73 5.50514 7.67926L5.50808 7.6822C5.52971 7.70623 5.53158 7.78955 5.59701 7.86486C5.6993 8.00347 5.91695 8.08893 6.12873 8.03605C6.48365 7.90786 6.68821 7.66564 6.89652 7.39725C6.92616 7.35398 6.9729 7.3198 7.01616 7.35318C7.1593 7.67365 7.57191 7.90145 8.10522 7.92495C8.22861 7.77487 8.16959 7.70116 8.11965 7.66965C8.10416 7.6595 7.85446 7.56202 7.81547 7.46508C7.79116 7.37481 7.85045 7.29469 7.96929 7.23461C8.31166 7.19321 8.64842 7.14728 8.97423 7.04232C8.97744 6.93283 9.04206 6.76912 9.08506 6.69809C9.1147 6.65055 9.13393 6.64574 9.14114 6.6388ZM8.23982 5.95246C8.24067 5.94911 8.24193 5.94589 8.24356 5.94285C8.24409 5.94178 8.24463 5.93991 8.24543 5.93911L8.24623 5.93804C8.2477 5.93631 8.2493 5.9347 8.25104 5.93323C8.25917 5.92728 8.26877 5.92368 8.27881 5.92282C8.30886 5.92181 8.33853 5.92981 8.364 5.94578C8.40753 5.97089 8.43424 6.00908 8.43104 6.03658V6.03952L8.42917 6.04246L8.4281 6.0454L8.42703 6.04727L8.42596 6.04914C8.42439 6.05159 8.4225 6.05384 8.42035 6.05581C8.39952 6.07531 8.35119 6.07264 8.30552 6.0462C8.26225 6.02136 8.23582 5.9829 8.23849 5.9554C8.23902 5.9546 8.23982 5.95326 8.23982 5.95246ZM7.80291 7.04713C7.68568 7.08719 7.57298 7.1187 7.57244 7.28802C7.58793 7.37188 7.58446 7.41594 7.57164 7.43624L7.5679 7.44104L7.56684 7.44211L7.56577 7.44318L7.56497 7.44425L7.5639 7.44532L7.56203 7.44638C7.56015 7.44752 7.55819 7.44851 7.55615 7.44932L7.55054 7.45039C7.52277 7.4544 7.48218 7.42796 7.452 7.4122C7.37963 7.36039 7.17693 7.23461 7.14782 6.96461C7.14381 6.90372 7.18921 6.85111 7.26266 6.84604H7.27494C7.39672 6.87915 7.57618 6.88262 7.73188 6.89865C7.859 6.90586 7.92176 7.00547 7.80291 7.04713Z" fill="white"/>
<path d="M7.43538 5.99002C7.56116 6.05011 7.86107 6.01459 7.78816 5.82071C7.78692 5.78913 7.7847 5.7576 7.78149 5.72617C7.76867 5.69626 7.7449 5.68504 7.7222 5.68878C7.6995 5.69278 7.6776 5.71148 7.66959 5.74219C7.66451 5.76249 7.6792 5.79614 7.66104 5.80629C7.65063 5.81697 7.60977 5.81082 7.61137 5.75474C7.61137 5.73685 7.59828 5.71735 7.59027 5.70587C7.58226 5.70053 7.57799 5.69919 7.56357 5.69919C7.54594 5.7 7.54541 5.70454 7.53579 5.71922C7.53179 5.73418 7.52618 5.74913 7.52618 5.76596C7.52404 5.78599 7.5171 5.79266 7.50241 5.7956C7.48612 5.7956 7.48986 5.79747 7.47651 5.78893C7.46849 5.78038 7.45834 5.77691 7.45834 5.76222C7.45852 5.74535 7.45591 5.72856 7.4506 5.71255C7.44366 5.70347 7.43164 5.69946 7.41909 5.69626C7.35045 5.69652 7.34618 5.77451 7.35019 5.80442C7.34511 5.81002 7.34164 5.95103 7.43538 5.99002ZM11.9756 11.2212C11.9006 11.2324 11.6896 11.2537 11.6896 11.2537C11.4458 11.2246 11.2669 11.2217 10.9926 11.2115C11.018 11.1795 11.0626 11.0492 11.0078 11.0022C10.9937 10.9904 10.9723 10.9837 10.9429 10.9859H10.94L10.9389 10.9848L10.936 10.9837C10.9342 10.9823 10.9326 10.9807 10.9312 10.9789L10.9293 10.9771C10.9154 10.9568 10.9079 10.9074 10.8986 10.8948L10.8975 10.8937L10.8967 10.8927L10.8949 10.8916H10.8927L10.8919 10.8924C10.7106 10.9389 10.7162 11.1272 10.8326 11.2099C8.91755 11.2099 5.97831 11.1774 5.34805 11.1774C4.99553 11.1774 3.87976 11.1352 3.8584 11.1352C4.09768 11.485 4.44432 11.5563 4.89779 11.5635C5.74837 11.5635 9.68988 11.5531 10.8115 11.5531C10.7317 11.6947 10.8187 11.9225 10.8812 11.9644L10.886 11.9673C10.8884 11.9684 10.8914 11.9697 10.8938 11.9703H10.8967C10.971 11.9879 11.0035 11.9339 11.0286 11.8947C11.1491 11.9054 11.8272 11.915 11.8891 11.8936L11.8902 11.8925C11.9321 11.9542 11.9738 12.0127 12.0536 12.0026C12.1933 11.9727 12.3036 11.9574 12.3071 11.6736C12.3073 11.6744 12.2929 11.191 11.9756 11.2212ZM11.8389 11.7395L11.8341 11.7414H11.8266L11.5924 11.7347C11.5925 11.7302 11.5919 11.7257 11.5905 11.7214C11.5689 11.6575 11.4129 11.6618 11.3764 11.7117L11.3745 11.7147L11.3726 11.7184L11.3707 11.7232L11.3697 11.7299C11.3694 11.7323 11.3686 11.7352 11.3686 11.7377C11.246 11.7523 11.1355 11.7336 11.0129 11.7291C10.9768 11.6842 10.9811 11.6033 11.0233 11.5838H11.0241C11.3035 11.5974 11.566 11.5865 11.8456 11.6001C11.8899 11.6375 11.8677 11.7238 11.8389 11.7395ZM8.55836 7.85756C8.55836 7.86237 8.6075 7.90456 8.66545 7.87091C8.78749 7.82444 8.86361 7.77904 9.03452 7.74192C9.07939 7.74112 9.07672 7.62095 9.00595 7.61667C8.91328 7.62121 8.82782 7.62602 8.73542 7.69893C8.67853 7.71201 8.66865 7.6773 8.6561 7.64632C8.64168 7.56914 8.68868 7.51492 8.67907 7.45697C8.68174 7.45964 8.65023 7.43133 8.61017 7.4292C8.59559 7.42828 8.58104 7.43122 8.56797 7.43774C8.56503 7.43774 8.43925 7.52294 8.39866 7.58222C8.37382 7.60092 8.37676 7.61747 8.38424 7.65006C8.40346 7.69439 8.43738 7.6805 8.4761 7.65967C8.52738 7.65273 8.55195 7.68611 8.54794 7.74753C8.52418 7.82444 8.55836 7.85275 8.55836 7.85756ZM12.7808 7.82711C12.7571 7.79988 12.7031 7.81617 12.6671 7.81189C12.65 7.81189 12.5933 7.80361 12.6203 7.75367C12.6427 7.7227 12.651 7.704 12.6663 7.66581C12.6833 7.62842 12.6684 7.60305 12.607 7.58276C12.5821 7.57771 12.5567 7.57547 12.5314 7.57608C12.5087 7.57688 12.4846 7.57982 12.4502 7.58276C12.4128 7.59077 12.3997 7.60706 12.3928 7.65246C12.3955 7.72136 12.4376 7.71789 12.4806 7.74513C12.5057 7.77691 12.5218 7.80575 12.4788 7.85783C12.4379 7.89522 12.4088 7.91605 12.3679 7.95343C12.3487 7.98628 12.3367 8.03702 12.3957 8.05278C12.5047 8.08349 12.757 7.91952 12.757 7.91605C12.7979 7.88533 12.7843 7.82711 12.7808 7.82711ZM10.8313 7.5013C10.9189 7.50184 11.0204 7.30074 11.0636 7.10152C11.0874 6.82725 11.0479 6.66034 11.0407 6.49903C11.0335 6.33773 10.8583 5.02995 10.8227 4.9079C10.7797 4.67716 10.9934 4.87746 10.9699 4.74339C10.8962 4.57434 10.7119 4.32812 10.6545 4.18124C10.6329 4.14198 10.6302 4.10539 10.6123 4.10859C10.6016 4.11046 10.5859 4.12676 10.5568 4.16494C10.4849 4.40022 10.4595 4.5925 10.4871 4.73859C10.6721 5.704 10.8615 6.58289 10.8313 7.5013Z" fill="white"/>
<path d="M13.5647 4.94768C13.5564 4.88679 13.5295 4.74685 13.5399 4.72869C13.5567 4.68596 13.6408 4.73297 13.671 4.68383C13.7151 4.63896 13.4531 4.30327 13.3612 4.15986C13.3428 4.12381 13.3316 4.09416 13.3153 4.09577C13.3027 4.0971 13.2873 4.1174 13.2638 4.16734C13.2069 4.26027 13.1874 4.42665 13.2101 4.5738C13.3468 5.49782 13.4483 6.39273 13.4691 7.2118C13.4574 7.28952 13.4539 7.33091 13.4176 7.42892C13.3369 7.53227 13.248 7.6618 13.1641 7.72429C13.0803 7.78678 12.9022 7.84633 12.8437 7.89253C12.6589 7.99936 12.6578 8.12247 12.8073 8.12674C13.0651 8.09683 13.3698 8.07574 13.5799 7.75874C13.636 7.66981 13.7023 7.42892 13.7052 7.2815C13.725 6.4173 13.6942 5.57233 13.5647 4.94768ZM11.8614 6.98747C11.9007 7.00857 12.0038 6.88172 12 6.72255C12.0115 6.64083 11.9709 6.33959 11.8681 6.28831C11.8559 6.28506 11.8433 6.28406 11.8307 6.28538C11.777 6.29205 11.726 6.34279 11.7495 6.42398C11.7348 6.47178 11.8224 6.63843 11.8451 6.72709C11.8657 6.79038 11.819 6.96851 11.8614 6.98747ZM3.74659 4.42852C3.87237 4.48861 4.10845 4.46324 4.09857 4.26027C4.0976 4.22871 4.09564 4.19718 4.0927 4.16573C4.07988 4.13582 4.05638 4.12461 4.03368 4.12861C4.01098 4.13262 3.98908 4.15131 3.98107 4.18202C3.97599 4.20232 3.98988 4.23597 3.97145 4.24612C3.96104 4.2568 3.92098 4.24959 3.92258 4.19351C3.92258 4.17562 3.9095 4.15692 3.90148 4.14571C3.89347 4.14063 3.88813 4.13903 3.87371 4.13903C3.85608 4.13983 3.85662 4.14437 3.84701 4.15906C3.84273 4.17401 3.83712 4.1887 3.83712 4.20579C3.83499 4.22582 3.82698 4.2325 3.81229 4.23544C3.796 4.23544 3.79974 4.23731 3.78638 4.22876C3.77864 4.22021 3.76929 4.21674 3.76929 4.20205C3.7691 4.18515 3.76621 4.16838 3.76074 4.15238C3.7538 4.1433 3.74285 4.13849 3.73003 4.13529C3.6614 4.13556 3.65633 4.21461 3.66033 4.24425C3.65552 4.24959 3.65285 4.38953 3.74659 4.42852ZM5.64778 5.08548C5.6266 5.08517 5.60586 5.09152 5.58849 5.10364C5.47713 5.16373 5.43413 5.34239 5.5033 5.44681C5.56793 5.53895 5.67048 5.50503 5.6841 5.50503C5.79306 5.51865 5.85822 5.30046 5.85822 5.30046C5.85822 5.30046 5.86143 5.23904 5.7319 5.35495C5.67742 5.36509 5.66994 5.3456 5.65632 5.31489C5.64336 5.25748 5.64936 5.19741 5.67342 5.1437C5.6857 5.10979 5.67368 5.08815 5.64778 5.08548ZM10.1742 7.30554C9.97172 7.51678 9.68009 7.77743 9.36229 7.89734C9.32811 7.9358 9.44722 8.09924 9.60131 8.09897C9.85902 8.06906 10.0855 7.92431 10.2954 7.54349C10.3515 7.45456 10.4503 7.26441 10.4532 7.117C10.473 6.2528 10.4097 5.58088 10.2802 4.95623C10.2719 4.89534 10.2775 4.8235 10.2879 4.80507C10.3045 4.78504 10.3611 4.80561 10.3913 4.7562C10.4353 4.71133 10.2738 4.33852 10.1819 4.19484C10.1635 4.15879 10.1523 4.13022 10.136 4.13182C10.1234 4.13315 10.1079 4.15265 10.0844 4.20259C10.0278 4.29552 9.98908 4.45736 9.99362 4.60905C10.1165 5.46017 10.1541 6.20473 10.2345 7.05584C10.2409 7.13836 10.2289 7.25774 10.1742 7.30554ZM3.16707 6.02954C2.86476 6.03514 2.42252 6.42558 2.41076 6.64243C2.72963 6.48941 3.04289 6.34199 3.36683 6.18336C3.31449 6.10538 3.36363 6.03514 3.16707 6.02954ZM2.58115 7.63295C2.50156 7.79426 2.46872 7.68396 2.46151 7.5937C2.44922 7.42278 2.46578 7.26521 2.48447 7.1405C2.49435 7.07667 2.49409 7.05424 2.48634 7.0545C2.47886 7.05477 2.46338 7.07747 2.44335 7.10338C2.26362 7.38966 2.24759 7.81722 2.34667 7.94488C2.39928 8.00523 2.48634 8.03167 2.55044 8.01271C2.6634 7.96384 2.71307 7.73497 2.6861 7.65138C2.64845 7.59209 2.6188 7.58275 2.58115 7.63295Z" fill="white"/>
<path d="M2.61648 5.76855C2.98368 5.8038 2.78098 5.14764 2.91398 5.02853C2.93908 4.96978 2.98555 4.96871 2.98956 5.04295V5.6003C2.98608 5.78163 3.10546 5.83531 3.19813 5.8727C3.29454 5.86522 3.35836 5.86789 3.39602 5.96163C3.41097 6.2829 3.42673 6.60497 3.44195 6.92651C3.44195 6.92651 3.66468 6.99061 3.67536 6.38438C3.68604 6.02839 3.60459 5.72982 3.6524 5.66066C3.654 5.59256 3.74133 5.58935 3.80141 5.62247C3.89729 5.6903 3.94002 5.77362 4.0893 5.73997C4.3163 5.67748 4.45304 5.56718 4.45651 5.3928C4.44315 5.22722 4.42393 5.06138 4.35235 4.89553C4.3625 4.86536 4.30882 4.78711 4.31897 4.75693C4.35983 4.82076 4.42152 4.81542 4.43568 4.75693C4.39695 4.62954 4.33686 4.5075 4.23966 4.45489C4.15927 4.38412 4.04177 4.39907 3.99877 4.54675C3.97874 4.71687 4.06046 4.9185 4.18438 5.08327C4.21081 5.14764 4.2474 5.25473 4.23111 5.35087C4.16515 5.38852 4.09998 5.37277 4.0447 5.31455C4.0447 5.31455 3.86391 5.17915 3.86391 5.14924C3.91198 4.84212 3.87432 4.80714 3.84761 4.72194C3.82892 4.60444 3.77337 4.56705 3.72797 4.48667C3.68284 4.43886 3.62142 4.43886 3.59231 4.48667C3.51246 4.62527 3.54984 4.92251 3.60753 5.0555C3.64919 5.17808 3.71328 5.25446 3.68311 5.25446C3.65827 5.32363 3.60673 5.3076 3.56934 5.22775C3.5162 5.06271 3.50525 4.81675 3.50525 4.70565C3.48922 4.56812 3.47133 4.27436 3.38106 4.19985C3.35703 4.167 3.32845 4.15551 3.30068 4.15872C3.26516 4.16299 3.23178 4.19183 3.21549 4.23056C3.20767 4.36348 3.21053 4.49681 3.22403 4.62928C3.28599 4.84987 3.30575 5.04402 3.33593 5.26995C3.34421 5.57253 3.16127 5.40081 3.16955 5.25072C3.21175 5.05577 3.20053 4.74918 3.16288 4.6712C3.13297 4.59349 3.09852 4.57426 3.02614 4.58708C2.96873 4.58361 2.81997 4.74545 2.77858 5.01357C2.77858 5.01357 2.74386 5.15111 2.72891 5.27369C2.70861 5.41202 2.61674 5.51003 2.55292 5.25446C2.49763 5.06859 2.46372 4.61085 2.37132 4.71794C2.34434 5.075 2.31283 5.70392 2.61648 5.76855Z" fill="white"/>
<path d="M2.7338 4.42184C2.75303 4.46991 2.71457 4.62453 2.7549 4.63895C2.79175 4.65498 2.84276 4.53186 2.86199 4.4181C2.87267 4.35587 2.86466 4.14249 2.71964 4.09869C2.71209 4.09703 2.70441 4.09604 2.69668 4.09576C2.64113 4.09415 2.57997 4.12861 2.60401 4.1951C2.59012 4.23169 2.71243 4.35427 2.7338 4.42184ZM4.83101 7.20378C4.96186 6.76794 4.82834 6.43919 4.87213 6.3986L4.874 6.39753L4.87587 6.39646L4.87774 6.3954L4.88335 6.39433C5.04492 6.56845 5.27165 6.41649 5.32133 6.35614C5.34269 6.32596 5.39583 6.30647 5.43322 6.34572C5.55927 6.43626 5.78013 6.39353 5.82633 6.23383C5.85304 6.0776 5.87547 5.91683 5.88081 5.74992C5.79883 5.77529 5.7326 5.79451 5.70589 5.82256C5.69966 5.8289 5.69532 5.83685 5.69334 5.84552L5.67224 5.98413C5.67156 5.98778 5.6703 5.99129 5.6685 5.99454C5.66459 6.00045 5.65939 6.00538 5.65328 6.00896C5.62417 6.02472 5.5737 6.01564 5.57102 5.97371C5.53203 5.79612 5.37127 5.77315 5.27352 6.04822C5.20783 6.10137 5.08818 6.11178 5.07563 6.03193C5.09166 5.84739 5.01715 5.82256 4.86813 5.90962C4.82032 5.54401 4.77279 5.1947 4.72472 4.8291C4.78694 4.82723 4.84383 4.87236 4.90071 4.80133C4.83929 4.61011 4.70923 4.22101 4.63579 4.18469L4.63392 4.18362C4.63079 4.17982 4.6273 4.17633 4.6235 4.1732L4.6187 4.16946L4.61389 4.16653C4.61083 4.16494 4.60761 4.16368 4.60427 4.16279C4.5976 4.16092 4.59119 4.16012 4.58424 4.16092C4.56608 4.16332 4.54579 4.17374 4.52202 4.17908C4.44404 4.20392 4.37087 4.27148 4.39383 4.40287C4.48624 4.9637 4.54632 5.39179 4.63846 5.95288C4.65261 6.01858 4.5976 6.1051 4.52656 6.09629C4.40585 6.01457 4.37594 5.84926 4.17004 5.8562C4.02102 5.85807 3.8509 6.02018 3.82954 6.17641C3.8047 6.30059 3.79589 6.43519 3.82954 6.54361C3.93422 6.66967 4.06001 6.65631 4.17004 6.62774C4.26057 6.59062 4.33508 6.50115 4.36686 6.52252H4.36793V6.52358C4.38769 6.55803 4.36606 6.84993 3.94144 7.07533C3.68052 7.19257 3.47275 7.22061 3.36112 7.00749C3.29195 6.87423 3.36619 6.36735 3.19581 6.48459C2.6916 7.78383 4.37674 7.96543 4.56502 6.53801C4.5773 6.49768 4.61442 6.45735 4.64059 6.46724C4.65208 6.47204 4.66249 6.4878 4.6665 6.51691C4.62751 7.8092 3.36299 7.89787 3.14801 7.49114C3.09486 7.39526 3.07884 7.18215 3.0735 7.05423C3.06388 6.97678 3.04439 6.93218 3.02195 6.91456C2.97068 6.8761 2.90178 6.97651 2.88709 7.15064C2.86572 7.29084 2.87187 7.3293 2.87187 7.46416C2.93917 8.48539 4.56635 8.04689 4.83101 7.20378ZM4.20235 6.32062V6.32169C4.20208 6.32222 4.20182 6.32329 4.20128 6.32356C4.18873 6.33985 4.14413 6.33317 4.11235 6.33317C4.0739 6.33157 4.0552 6.32516 4.03197 6.29391C4.02102 6.2592 4.0544 6.22501 4.06936 6.19937L4.07016 6.19831C4.07215 6.19553 4.07438 6.19294 4.07683 6.19056C4.09503 6.1751 4.11812 6.16658 4.142 6.16653C4.17164 6.16679 4.20289 6.18148 4.21944 6.22288C4.22552 6.23922 4.22714 6.25689 4.22414 6.27406C4.22114 6.29124 4.21362 6.30731 4.20235 6.32062ZM9.58304 5.34586C9.70883 5.40594 9.94597 5.37951 9.93583 5.17654C9.93459 5.14497 9.93236 5.11344 9.92915 5.082C9.91633 5.05209 9.89256 5.04088 9.86986 5.04462C9.84716 5.04862 9.82526 5.06812 9.81725 5.09909C9.81218 5.11939 9.82687 5.15197 9.80871 5.16212C9.79829 5.1728 9.75743 5.16666 9.75903 5.11058C9.75903 5.09269 9.74595 5.07319 9.73794 5.06171C9.72992 5.05663 9.72458 5.05503 9.71016 5.05503C9.69254 5.05583 9.69307 5.06037 9.68346 5.07506C9.67945 5.09001 9.67384 5.10497 9.67384 5.12179C9.67171 5.14182 9.66476 5.1485 9.65007 5.15144C9.63378 5.15144 9.63672 5.15331 9.62337 5.14476C9.61536 5.13622 9.60628 5.13274 9.60628 5.11806C9.60608 5.10115 9.6032 5.08438 9.59773 5.06838C9.59079 5.0593 9.57984 5.0553 9.56702 5.05209C9.49838 5.05236 9.49438 5.13034 9.49812 5.16025C9.49278 5.16613 9.48931 5.30713 9.58304 5.34586ZM9.66797 4.5591C9.71283 4.68489 9.63378 4.8048 9.68052 4.82216C9.72352 4.84165 9.78334 4.69237 9.80577 4.55456C9.83167 4.44293 9.75209 4.2146 9.63939 4.16733C9.63062 4.1654 9.62167 4.16441 9.61269 4.16439C9.54833 4.16252 9.47675 4.20311 9.50453 4.28403C9.48824 4.32783 9.64313 4.47712 9.66797 4.5591Z" fill="white"/>
<path d="M4.98132 5.16437H4.98238L4.98345 5.16544H4.98452L4.98559 5.1665C5.00936 5.18253 5.30392 5.18226 5.3365 5.16757L5.3373 5.1665H5.33837V5.16544C5.43959 5.12805 5.91976 4.57924 5.91976 4.57924C5.89492 4.55788 5.87195 4.54212 5.84712 4.52102C5.82041 4.49806 5.82308 4.47536 5.84712 4.45212C5.96596 4.38296 5.9283 4.23073 5.86635 4.16156C5.82152 4.14069 5.77234 4.13089 5.72294 4.13299C5.68285 4.13517 5.64369 4.14591 5.6081 4.1645C5.52478 4.24435 5.50502 4.37254 5.57071 4.45239C5.63454 4.48257 5.69837 4.54693 5.6559 4.58245C5.47511 4.77553 5.00455 5.09814 4.98078 5.15716L4.97998 5.15903V5.16196L4.98078 5.16383L4.98132 5.16437ZM5.69329 4.30391L5.6989 4.30284C5.72828 4.2999 5.7638 4.32687 5.78116 4.36506C5.79958 4.40566 5.7905 4.44465 5.76006 4.45212C5.72988 4.4596 5.69062 4.43263 5.6722 4.39177C5.65377 4.35118 5.66312 4.31138 5.69329 4.30391ZM8.50168 4.60755C8.71259 4.88991 8.91599 5.17781 9.11164 5.47095C9.14235 5.68994 9.16505 5.90412 9.17947 6.11723C9.21125 6.58485 9.22087 7.16704 9.19202 7.65949C9.27962 7.66297 9.42009 7.51795 9.46923 7.30564C9.50128 7.01188 9.45775 6.41286 9.45481 6.23954C9.45204 6.15698 9.44821 6.07445 9.44333 5.99198C9.68244 6.38262 9.90475 6.78331 10.1096 7.19294C10.1887 7.15529 10.1713 6.70957 10.1249 6.64708C9.951 6.27293 9.71092 5.90359 9.63427 5.76178C9.60677 5.7105 9.51249 5.56736 9.40086 5.40232C9.3803 5.16677 9.35787 4.96728 9.34345 4.90692C9.30766 4.65803 9.44573 4.93496 9.42677 4.79022C9.3819 4.54159 9.24463 4.37254 9.08253 4.14474C9.03019 4.07076 9.03126 4.05554 8.9506 4.1629C8.90227 4.27239 8.90307 4.36346 8.91722 4.44865C8.89066 4.40973 8.86223 4.37212 8.83203 4.33595C8.69209 4.21578 8.68354 4.20937 8.56711 4.11136C8.53052 4.08545 8.46082 4.04539 8.40741 4.0502C8.37536 4.05314 8.34999 4.07183 8.34037 4.1191C8.32756 4.2302 8.33423 4.29055 8.35293 4.38295C8.36761 4.44465 8.45735 4.54773 8.50168 4.60755ZM8.9482 4.59073C8.95354 4.61476 8.95888 4.6388 8.96262 4.66337C8.97464 4.71624 8.98505 4.76885 8.996 4.8212C8.96375 4.77549 8.92999 4.73087 8.89479 4.6874C8.78983 4.56269 8.89692 4.60541 8.9482 4.59073Z" fill="white"/>
<path d="M6.3567 5.48483C6.50358 5.54572 6.59678 5.26611 6.65687 4.95979C6.698 4.8738 6.72951 4.86392 6.75061 4.90825C6.74527 5.31524 6.77972 5.40631 6.8844 5.52969C7.11781 5.70996 7.3109 5.55239 7.32612 5.53744L7.50772 5.35584C7.54831 5.31338 7.60172 5.3107 7.65887 5.34809C7.71442 5.39857 7.70721 5.48563 7.82632 5.54598C7.92647 5.58604 8.14011 5.5556 8.18978 5.4696C8.25655 5.3553 8.27257 5.31605 8.30355 5.27252C8.35109 5.20922 8.43254 5.23726 8.43254 5.25729C8.42506 5.29254 8.37699 5.32753 8.40957 5.39109C8.46619 5.43355 8.47928 5.40631 8.51292 5.3967C8.6315 5.34008 8.72043 5.08317 8.72043 5.08317C8.72577 4.9873 8.67102 4.99451 8.63631 5.01427C8.59091 5.04204 8.58797 5.05139 8.54257 5.07917C8.48462 5.08771 8.37245 5.1259 8.3169 5.03991C8.26029 4.93656 8.25975 4.79234 8.21649 4.68792C8.21649 4.68045 8.14065 4.52395 8.21088 4.5138C8.24613 4.52048 8.32225 4.53997 8.33426 4.47641C8.37138 4.41446 8.25415 4.239 8.17456 4.15034C8.10539 4.07449 8.00979 4.06514 7.91738 4.14259C7.85249 4.20215 7.8621 4.26864 7.84955 4.33194C7.83299 4.40431 7.8362 4.49431 7.90991 4.59018C7.97454 4.71757 8.09204 4.88127 8.05332 5.11228C8.05332 5.11228 7.98495 5.22231 7.86504 5.20789C7.8151 5.19694 7.73338 5.17531 7.69012 4.8551C7.65727 4.61261 7.6984 4.27318 7.59558 4.11402C7.57235 4.05393 7.55232 3.99571 7.5192 4.00025C7.49917 4.00292 7.47487 4.02856 7.44069 4.09025C7.41638 4.15461 7.31143 4.25235 7.38727 4.45371C7.44923 4.58137 7.4746 4.78861 7.44656 5.01988C7.40356 5.08557 7.39395 5.10827 7.3376 5.1737C7.25855 5.25863 7.17283 5.237 7.10713 5.20522C7.04571 5.16382 6.99737 5.14246 6.96933 5.01107C6.9744 4.80142 6.98669 4.45852 6.94823 4.38561C6.89188 4.27292 6.79868 4.31324 6.75889 4.34742C6.56767 4.52208 6.4734 4.81718 6.41572 5.05219C6.36284 5.22338 6.30622 5.1737 6.2667 5.1048C6.17002 5.01427 6.16335 4.30683 6.04664 4.423C5.85943 4.95712 6.1532 5.54171 6.3567 5.48483Z" fill="white"/>
<path d="M7.18392 4.47584C7.2563 4.28062 7.25656 4.1973 7.26137 4.11451C7.25015 4.05148 7.22265 4.02104 7.19167 4.02371C7.16069 4.02638 7.12597 4.0627 7.09793 4.13267C7.0739 4.18581 7.04425 4.46436 7.04933 4.46436C7.02983 4.54714 7.13559 4.58239 7.18392 4.47584ZM6.42842 4.43017C6.44623 4.41911 6.46155 4.40448 6.47341 4.3872C6.48527 4.36991 6.49341 4.35035 6.49732 4.32976C6.51441 4.24457 6.40758 4.37008 6.39396 4.27528C6.3702 4.18715 6.4383 4.1511 6.50292 4.0659C6.50426 4.02585 6.50506 3.993 6.47916 3.9922C6.46741 3.99193 6.44951 3.99834 6.42468 4.01329C6.36886 4.05068 6.25777 4.16632 6.25456 4.29905C6.25109 4.37409 6.23693 4.37382 6.28607 4.42136C6.32159 4.47263 6.35684 4.46756 6.42842 4.43017Z" fill="white"/>
</svg>
