<svg width="16" height="25" viewBox="0 0 16 25" fill="none" xmlns="http://www.w3.org/2000/svg">
<path d="M7.58452 19.9999C7.47862 19.9999 7.37271 19.9591 7.29124 19.8775L4.1222 16.7019C4.04888 16.6284 4 16.5223 4 16.408C4 16.3019 4.04073 16.1713 4.1222 16.0978L7.29124 12.9223C7.45418 12.759 7.71487 12.759 7.8778 12.9223C8.04073 13.0855 8.04073 13.3468 7.8778 13.51L4.98574 16.3999L7.8778 19.2979C8.04073 19.4611 8.04073 19.7224 7.8778 19.8856C7.79633 19.9591 7.69043 19.9999 7.58452 19.9999Z" fill="#666666"/>
<path d="M11.5845 19.9999C11.4786 19.9999 11.3727 19.9591 11.2912 19.8775L8.1222 16.7019C8.04888 16.6284 8 16.5223 8 16.408C8 16.3019 8.04073 16.1713 8.1222 16.0978L11.2912 12.9223C11.4542 12.759 11.7149 12.759 11.8778 12.9223C12.0407 13.0855 12.0407 13.3468 11.8778 13.51L8.98574 16.3999L11.8778 19.2979C12.0407 19.4611 12.0407 19.7224 11.8778 19.8856C11.7963 19.9591 11.6904 19.9999 11.5845 19.9999Z" fill="#666666"/>
</svg>
