<svg width="16" height="16" viewBox="0 0 16 16" fill="none" xmlns="http://www.w3.org/2000/svg">
<path fill-rule="evenodd" clip-rule="evenodd" d="M3.54229 4.56419C3.53235 4.45417 3.54543 4.34329 3.58071 4.23861C3.61599 4.13393 3.67269 4.03774 3.74719 3.95619C3.82169 3.87463 3.91237 3.80948 4.01344 3.76491C4.11451 3.72033 4.22376 3.69729 4.33422 3.69727H13.976C14.0951 3.69732 14.2127 3.72411 14.32 3.77566C14.4274 3.82722 14.5218 3.90222 14.5962 3.99514C14.6707 4.08805 14.7234 4.19651 14.7504 4.3125C14.7773 4.4285 14.7779 4.54906 14.7521 4.66531L13.9374 8.33751C13.7972 8.96858 13.446 9.53296 12.9418 9.93745C12.4375 10.3419 11.8104 10.5623 11.1639 10.5622H6.67934C5.97022 10.5622 5.28673 10.297 4.76321 9.81872C4.2397 9.34041 3.91402 8.68358 3.8502 7.97733L3.54229 4.56419ZM4.7069 4.83347L4.98186 7.87508C5.02017 8.29902 5.21573 8.69328 5.53008 8.98029C5.84443 9.26731 6.25481 9.4263 6.68048 9.42599H11.1651C11.5528 9.4259 11.929 9.29356 12.2314 9.05084C12.5338 8.80812 12.7444 8.46952 12.8285 8.09096L13.5522 4.83347H4.7069Z" fill="#333333"/>
<path fill-rule="evenodd" clip-rule="evenodd" d="M1.19287 1.79076C1.19287 1.64009 1.25272 1.49559 1.35926 1.38905C1.4658 1.28251 1.6103 1.22266 1.76097 1.22266H3.75387C3.89283 1.2228 4.02692 1.27387 4.13077 1.3662C4.23462 1.45853 4.30103 1.58573 4.31742 1.72372L4.77418 5.58794C4.79181 5.73771 4.74922 5.88834 4.65578 6.00671C4.56235 6.12507 4.42572 6.20147 4.27595 6.2191C4.12619 6.23673 3.97555 6.19414 3.85719 6.10071C3.73882 6.00727 3.66242 5.87064 3.64479 5.72088L3.24826 2.35772H1.76097C1.6103 2.35772 1.4658 2.29787 1.35926 2.19133C1.25272 2.08479 1.19287 1.94143 1.19287 1.79076ZM6.30578 13.5311C6.45645 13.5311 6.60094 13.4713 6.70748 13.3647C6.81402 13.2582 6.87388 13.1137 6.87388 12.963C6.87388 12.8124 6.81402 12.6679 6.70748 12.5613C6.60094 12.4548 6.45645 12.3949 6.30578 12.3949C6.15511 12.3949 6.01061 12.4548 5.90407 12.5613C5.79753 12.6679 5.73768 12.8124 5.73768 12.963C5.73768 13.1137 5.79753 13.2582 5.90407 13.3647C6.01061 13.4713 6.15511 13.5311 6.30578 13.5311ZM6.30578 14.6673C6.52959 14.6673 6.75121 14.6232 6.95798 14.5376C7.16476 14.4519 7.35264 14.3264 7.5109 14.1681C7.66916 14.0099 7.7947 13.822 7.88035 13.6152C7.96599 13.4085 8.01008 13.1868 8.01008 12.963C8.01008 12.7392 7.96599 12.5176 7.88035 12.3108C7.7947 12.104 7.66916 11.9162 7.5109 11.7579C7.35264 11.5996 7.16476 11.4741 6.95798 11.3885C6.75121 11.3028 6.52959 11.2587 6.30578 11.2587C5.85377 11.2587 5.42027 11.4383 5.10065 11.7579C4.78103 12.0775 4.60147 12.511 4.60147 12.963C4.60147 13.415 4.78103 13.8485 5.10065 14.1681C5.42027 14.4878 5.85377 14.6673 6.30578 14.6673ZM11.4891 13.5311C11.6398 13.5311 11.7843 13.4713 11.8908 13.3647C11.9974 13.2582 12.0572 13.1137 12.0572 12.963C12.0572 12.8124 11.9974 12.6679 11.8908 12.5613C11.7843 12.4548 11.6398 12.3949 11.4891 12.3949C11.3385 12.3949 11.194 12.4548 11.0874 12.5613C10.9809 12.6679 10.921 12.8124 10.921 12.963C10.921 13.1137 10.9809 13.2582 11.0874 13.3647C11.194 13.4713 11.3385 13.5311 11.4891 13.5311ZM11.4891 14.6673C11.7129 14.6673 11.9346 14.6232 12.1413 14.5376C12.3481 14.4519 12.536 14.3264 12.6942 14.1681C12.8525 14.0099 12.978 13.822 13.0637 13.6152C13.1493 13.4085 13.1934 13.1868 13.1934 12.963C13.1934 12.7392 13.1493 12.5176 13.0637 12.3108C12.978 12.104 12.8525 11.9162 12.6942 11.7579C12.536 11.5996 12.3481 11.4741 12.1413 11.3885C11.9346 11.3028 11.7129 11.2587 11.4891 11.2587C11.0371 11.2587 10.6036 11.4383 10.284 11.7579C9.96438 12.0775 9.78482 12.511 9.78482 12.963C9.78482 13.415 9.96438 13.8485 10.284 14.1681C10.6036 14.4878 11.0371 14.6673 11.4891 14.6673Z" fill="#333333"/>
</svg>
