<svg width="21" height="21" viewBox="0 0 21 21" fill="none" xmlns="http://www.w3.org/2000/svg">
<path fill-rule="evenodd" clip-rule="evenodd" d="M3.52437 5.0123C3.50946 4.84727 3.52909 4.68095 3.582 4.52393C3.63492 4.36691 3.71997 4.22263 3.83172 4.1003C3.94348 3.97796 4.07949 3.88024 4.2311 3.81337C4.3827 3.74651 4.54657 3.71195 4.71227 3.71191H19.175C19.3536 3.71199 19.5299 3.75218 19.691 3.82951C19.852 3.90684 19.9936 4.01935 20.1053 4.15872C20.217 4.2981 20.296 4.46078 20.3365 4.63477C20.3769 4.80876 20.3778 4.98961 20.339 5.16398L19.117 10.6723C18.9068 11.6189 18.38 12.4655 17.6236 13.0722C16.8672 13.6789 15.9265 14.0095 14.9568 14.0093H8.22995C7.16627 14.0094 6.14103 13.6116 5.35576 12.8941C4.57048 12.1766 4.08197 11.1914 3.98624 10.132L3.52437 5.0123ZM5.27128 5.41622L5.68372 9.97863C5.74119 10.6145 6.03454 11.2059 6.50606 11.6365C6.97759 12.067 7.59315 12.3055 8.23165 12.305H14.9585C15.5402 12.3049 16.1044 12.1064 16.5581 11.7423C17.0117 11.3782 17.3276 10.8703 17.4536 10.3024L18.5393 5.41622H5.27128Z" fill="#666666"/>
<path fill-rule="evenodd" clip-rule="evenodd" d="M0 0.852151C0 0.626146 0.0897799 0.409399 0.249589 0.249589C0.409398 0.0897801 0.626146 0 0.852151 0H3.8415C4.04994 0.000211289 4.25107 0.0768146 4.40685 0.215316C4.56262 0.353817 4.66223 0.54461 4.68683 0.751597L5.37196 6.54793C5.3984 6.77257 5.33452 6.99853 5.19437 7.17607C5.05421 7.35362 4.84927 7.46822 4.62462 7.49467C4.39997 7.52111 4.17402 7.45723 3.99647 7.31707C3.81893 7.17692 3.70433 6.97198 3.67788 6.74733L3.08308 1.7026H0.852151C0.626146 1.7026 0.409398 1.61282 0.249589 1.45301C0.0897799 1.2932 0 1.07816 0 0.852151ZM7.66936 18.4627C7.89536 18.4627 8.11211 18.3729 8.27192 18.2131C8.43173 18.0533 8.52151 17.8366 8.52151 17.6105C8.52151 17.3845 8.43173 17.1678 8.27192 17.008C8.11211 16.8482 7.89536 16.7584 7.66936 16.7584C7.44335 16.7584 7.2266 16.8482 7.0668 17.008C6.90699 17.1678 6.81721 17.3845 6.81721 17.6105C6.81721 17.8366 6.90699 18.0533 7.0668 18.2131C7.2266 18.3729 7.44335 18.4627 7.66936 18.4627ZM7.66936 20.167C8.00508 20.167 8.33751 20.1009 8.64767 19.9724C8.95783 19.8439 9.23965 19.6556 9.47704 19.4182C9.71443 19.1808 9.90274 18.899 10.0312 18.5889C10.1597 18.2787 10.2258 17.9463 10.2258 17.6105C10.2258 17.2748 10.1597 16.9424 10.0312 16.6322C9.90274 16.3221 9.71443 16.0403 9.47704 15.8029C9.23965 15.5655 8.95783 15.3772 8.64767 15.2487C8.33751 15.1202 8.00508 15.0541 7.66936 15.0541C6.99134 15.0541 6.3411 15.3234 5.86167 15.8029C5.38224 16.2823 5.11291 16.9325 5.1129 17.6105C5.11291 18.2886 5.38224 18.9388 5.86167 19.4182C6.3411 19.8977 6.99134 20.167 7.66936 20.167ZM15.4444 18.4627C15.6704 18.4627 15.8871 18.3729 16.0469 18.2131C16.2068 18.0533 16.2965 17.8366 16.2965 17.6105C16.2965 17.3845 16.2068 17.1678 16.0469 17.008C15.8871 16.8482 15.6704 16.7584 15.4444 16.7584C15.2184 16.7584 15.0016 16.8482 14.8418 17.008C14.682 17.1678 14.5922 17.3845 14.5922 17.6105C14.5922 17.8366 14.682 18.0533 14.8418 18.2131C15.0016 18.3729 15.2184 18.4627 15.4444 18.4627ZM15.4444 20.167C15.7801 20.167 16.1125 20.1009 16.4227 19.9724C16.7329 19.8439 17.0147 19.6556 17.2521 19.4182C17.4895 19.1808 17.6778 18.899 17.8062 18.5889C17.9347 18.2787 18.0008 17.9463 18.0008 17.6105C18.0008 17.2748 17.9347 16.9424 17.8062 16.6322C17.6778 16.3221 17.4895 16.0403 17.2521 15.8029C17.0147 15.5655 16.7329 15.3772 16.4227 15.2487C16.1125 15.1202 15.7801 15.0541 15.4444 15.0541C14.7664 15.0541 14.1161 15.3234 13.6367 15.8029C13.1573 16.2823 12.8879 16.9325 12.8879 17.6105C12.8879 18.2886 13.1573 18.9388 13.6367 19.4182C14.1161 19.8977 14.7664 20.167 15.4444 20.167Z" fill="#666666"/>
</svg>
