<svg width="30" height="30" viewBox="0 0 30 30" fill="none" xmlns="http://www.w3.org/2000/svg">
<path fill-rule="evenodd" clip-rule="evenodd" d="M28.5332 12.896L26.3949 10.7575C25.9383 10.3009 25.6814 9.68009 25.6814 9.03334V6.01409C25.6814 4.66372 24.5861 3.56851 23.2357 3.56851H20.2166C19.5699 3.56851 18.9507 3.31172 18.4924 2.85509L16.3539 0.716625C15.3984 -0.238875 13.8515 -0.238875 12.896 0.716625L10.7574 2.85509C10.3008 3.31172 9.67999 3.56851 9.03324 3.56851H6.01414C4.66377 3.56851 3.56851 4.66372 3.56851 6.01409V9.03334C3.56851 9.68009 3.31162 10.2992 2.85499 10.7575L0.716625 12.896C-0.238875 13.8515 -0.238875 15.3985 0.716625 16.354L2.85499 18.4925C3.31162 18.9491 3.56851 19.5699 3.56851 20.2166V23.2359C3.56851 24.5863 4.66377 25.6815 6.01414 25.6815H9.03324C9.67999 25.6815 10.2992 25.9383 10.7574 26.3949L12.896 28.5333C13.8515 29.4888 15.3984 29.4888 16.3539 28.5333L18.4924 26.3949C18.9491 25.9383 19.5699 25.6815 20.2166 25.6815H23.2357C24.5861 25.6815 25.6814 24.5863 25.6814 23.2359V20.2166C25.6814 19.5699 25.9383 18.9507 26.3949 18.4925L28.5332 16.354C29.4887 15.3985 29.4887 13.8515 28.5332 12.896ZM8.96183 10.5625C8.96183 9.66548 9.6817 8.93748 10.5787 8.93748H10.595C11.4936 8.93748 12.22 9.66548 12.22 10.5625C12.22 11.4595 11.4936 12.1875 10.595 12.1875C9.69797 12.1875 8.96183 11.4595 8.96183 10.5625ZM11.4237 19.5487C11.1865 19.786 10.8744 19.9062 10.5624 19.9062C10.2504 19.9062 9.93839 19.7876 9.70114 19.5487C9.22501 19.0726 9.22501 18.3007 9.70114 17.8246L17.8261 9.6996C18.3023 9.22347 19.0742 9.22347 19.5503 9.6996C20.0264 10.1757 20.0264 10.9476 19.5503 11.4237L11.4237 19.5487ZM18.72 20.3125C17.823 20.3125 17.0868 19.5845 17.0868 18.6875C17.0868 17.7905 17.8067 17.0625 18.7037 17.0625H18.72C19.6186 17.0625 20.345 17.7905 20.345 18.6875C20.345 19.5845 19.617 20.3125 18.72 20.3125Z" fill="#391462"/>
</svg>
