<svg width="32" height="32" viewBox="0 0 32 32" fill="none" xmlns="http://www.w3.org/2000/svg">
<path d="M26.866 27.7772H5.13439C3.83383 27.7755 2.58703 27.2581 1.66748 26.3383C0.747927 25.4186 0.2307 24.1717 0.229248 22.8712V9.12853C0.2307 7.82805 0.747957 6.58125 1.66753 5.66168C2.58711 4.7421 3.83391 4.22484 5.13439 4.22339H26.866C28.1666 4.22484 29.4135 4.74207 30.3332 5.66162C31.2529 6.58117 31.7704 7.82797 31.7721 9.12853V22.8712C31.7707 24.1719 31.2533 25.4189 30.3335 26.3387C29.4138 27.2584 28.1668 27.7758 26.866 27.7772ZM5.13439 6.5091C4.4399 6.50983 3.77406 6.78604 3.28298 7.27712C2.7919 7.7682 2.51569 8.43404 2.51496 9.12853V22.8712C2.51545 23.5658 2.79155 24.2319 3.28265 24.7232C3.77376 25.2144 4.43974 25.4908 5.13439 25.4915H26.866C27.5608 25.4908 28.2269 25.2145 28.7181 24.7232C29.2094 24.232 29.4857 23.5659 29.4864 22.8712V9.12853C29.4854 8.43396 29.209 7.76812 28.7178 7.27706C28.2266 6.78601 27.5606 6.50983 26.866 6.5091H5.13439Z" fill="#391462"/>
<path d="M15.9864 19.0763C15.0275 19.0858 14.0934 18.7717 13.3349 18.1849L1.11278 8.44501C0.87575 8.25599 0.723516 7.98056 0.689567 7.6793C0.655617 7.37804 0.742733 7.07564 0.931749 6.83861C1.12077 6.60158 1.3962 6.44935 1.69746 6.4154C1.99872 6.38145 2.30112 6.46856 2.53815 6.65758L14.7567 16.3975C15.1176 16.6535 15.5495 16.7905 15.992 16.7893C16.4345 16.7882 16.8656 16.6489 17.2252 16.3911L29.2929 6.66215C29.5287 6.47192 29.8304 6.38316 30.1317 6.4154C30.4329 6.44763 30.7091 6.59822 30.8993 6.83404C31.0895 7.06985 31.1783 7.37158 31.146 7.67283C31.1138 7.97409 30.9632 8.25021 30.7274 8.44044L18.6634 18.1693C17.8997 18.7665 16.9558 19.0863 15.9864 19.0763Z" fill="#391462"/>
</svg>
