<svg width="17" height="17" viewBox="0 0 17 17" fill="none" xmlns="http://www.w3.org/2000/svg">
<path d="M12.2799 3.86783C12.1118 3.86783 11.9474 3.91768 11.8077 4.01108C11.6679 4.10448 11.5589 4.23723 11.4946 4.39254C11.4303 4.54786 11.4134 4.71877 11.4462 4.88365C11.479 5.04854 11.56 5.19999 11.6789 5.31887C11.7977 5.43774 11.9492 5.5187 12.1141 5.55149C12.279 5.58429 12.4499 5.56746 12.6052 5.50312C12.7605 5.43879 12.8932 5.32984 12.9866 5.19006C13.08 5.05028 13.1299 4.88594 13.1299 4.71783C13.1299 4.49239 13.0403 4.27619 12.8809 4.11678C12.7215 3.95738 12.5053 3.86783 12.2799 3.86783ZM15.5382 5.58199C15.5245 4.99429 15.4144 4.41282 15.2124 3.86074C15.0323 3.38838 14.752 2.96065 14.3907 2.60699C14.04 2.24392 13.6112 1.96537 13.137 1.79241C12.5864 1.58427 12.0042 1.47168 11.4157 1.45949C10.6649 1.41699 10.4241 1.41699 8.4974 1.41699C6.57073 1.41699 6.3299 1.41699 5.57906 1.45949C4.99055 1.47168 4.40843 1.58427 3.85781 1.79241C3.38442 1.96712 2.95606 2.24543 2.60406 2.60699C2.24099 2.95774 1.96244 3.38647 1.78948 3.86074C1.58134 4.41136 1.46875 4.99348 1.45656 5.58199C1.41406 6.33283 1.41406 6.57366 1.41406 8.50033C1.41406 10.427 1.41406 10.6678 1.45656 11.4187C1.46875 12.0072 1.58134 12.5893 1.78948 13.1399C1.96244 13.6142 2.24099 14.0429 2.60406 14.3937C2.95606 14.7552 3.38442 15.0335 3.85781 15.2082C4.40843 15.4164 4.99055 15.529 5.57906 15.5412C6.3299 15.5837 6.57073 15.5837 8.4974 15.5837C10.4241 15.5837 10.6649 15.5837 11.4157 15.5412C12.0042 15.529 12.5864 15.4164 13.137 15.2082C13.6112 15.0353 14.04 14.7567 14.3907 14.3937C14.7536 14.0413 15.0341 13.6132 15.2124 13.1399C15.4144 12.5878 15.5245 12.0064 15.5382 11.4187C15.5382 10.6678 15.5807 10.427 15.5807 8.50033C15.5807 6.57366 15.5807 6.33283 15.5382 5.58199ZM14.2632 11.3337C14.2581 11.7833 14.1766 12.2288 14.0224 12.6512C13.9093 12.9594 13.7276 13.238 13.4911 13.4657C13.2614 13.6999 12.9834 13.8811 12.6766 13.997C12.2542 14.1512 11.8087 14.2327 11.3591 14.2378C10.6507 14.2732 10.3886 14.2803 8.52573 14.2803C6.66281 14.2803 6.40073 14.2803 5.6924 14.2378C5.22553 14.2466 4.76065 14.1747 4.31823 14.0253C4.02482 13.9035 3.75961 13.7227 3.53906 13.4941C3.30396 13.2665 3.12458 12.9878 3.0149 12.6795C2.84196 12.2511 2.74604 11.7955 2.73156 11.3337C2.73156 10.6253 2.68906 10.3632 2.68906 8.50033C2.68906 6.63741 2.68906 6.37533 2.73156 5.66699C2.73474 5.20732 2.81865 4.75179 2.97948 4.32116C3.10418 4.02218 3.29558 3.75567 3.53906 3.54199C3.75426 3.29844 4.02022 3.10502 4.31823 2.97533C4.74999 2.81952 5.20506 2.73809 5.66406 2.73449C6.3724 2.73449 6.63448 2.69199 8.4974 2.69199C10.3603 2.69199 10.6224 2.69199 11.3307 2.73449C11.7804 2.73965 12.2259 2.82108 12.6482 2.97533C12.9701 3.09479 13.259 3.28901 13.4911 3.54199C13.7233 3.75958 13.9046 4.02559 14.0224 4.32116C14.1798 4.75249 14.2613 5.20784 14.2632 5.66699C14.2986 6.37533 14.3057 6.63741 14.3057 8.50033C14.3057 10.3632 14.2986 10.6253 14.2632 11.3337ZM8.4974 4.86658C7.77901 4.86798 7.07716 5.08228 6.48053 5.48241C5.88389 5.88254 5.41925 6.45055 5.1453 7.11465C4.87136 7.77875 4.80041 8.50916 4.94142 9.21357C5.08242 9.91798 5.42906 10.5648 5.93753 11.0723C6.446 11.5797 7.09349 11.9251 7.79817 12.0648C8.50286 12.2044 9.23312 12.132 9.89669 11.8568C10.5603 11.5816 11.1274 11.1158 11.5263 10.5184C11.9253 9.92098 12.1382 9.21871 12.1382 8.50033C12.1392 8.02227 12.0456 7.54876 11.8629 7.107C11.6801 6.66525 11.4119 6.26398 11.0735 5.92628C10.7351 5.58857 10.3334 5.3211 9.89125 5.13923C9.44914 4.95737 8.97544 4.86471 8.4974 4.86658ZM8.4974 10.8591C8.03088 10.8591 7.57484 10.7207 7.18694 10.4616C6.79905 10.2024 6.49672 9.83399 6.31819 9.40298C6.13967 8.97197 6.09296 8.49771 6.18397 8.04016C6.27498 7.5826 6.49963 7.16231 6.82951 6.83244C7.15938 6.50256 7.57967 6.27791 8.03723 6.1869C8.49478 6.09589 8.96905 6.1426 9.40005 6.32112C9.83106 6.49965 10.1994 6.80198 10.4586 7.18987C10.7178 7.57777 10.8561 8.03381 10.8561 8.50033C10.8561 8.81008 10.7951 9.1168 10.6766 9.40298C10.5581 9.68916 10.3843 9.94918 10.1653 10.1682C9.94625 10.3872 9.68623 10.561 9.40005 10.6795C9.11387 10.7981 8.80715 10.8591 8.4974 10.8591Z" fill="#A5A5A5"/>
</svg>
