<svg width="16" height="16" viewBox="0 0 16 16" fill="none" xmlns="http://www.w3.org/2000/svg">
<path d="M8.80016 2.3999C8.58799 2.3999 8.38451 2.48419 8.23448 2.63422C8.08445 2.78425 8.00016 2.98773 8.00016 3.1999C8.00016 3.41208 8.08445 3.61556 8.23448 3.76559C8.38451 3.91562 8.58799 3.9999 8.80016 3.9999H10.869L5.83456 9.0343C5.75815 9.1081 5.69721 9.19638 5.65528 9.29398C5.61335 9.39158 5.59129 9.49656 5.59036 9.60278C5.58944 9.70901 5.60968 9.81435 5.64991 9.91267C5.69013 10.011 5.74953 10.1003 5.82465 10.1754C5.89976 10.2505 5.98908 10.3099 6.0874 10.3502C6.18572 10.3904 6.29106 10.4106 6.39728 10.4097C6.50351 10.4088 6.60848 10.3867 6.70609 10.3448C6.80369 10.3029 6.89197 10.2419 6.96576 10.1655L12.0002 5.1311V7.1999C12.0002 7.41208 12.0844 7.61556 12.2345 7.76559C12.3845 7.91562 12.588 7.9999 12.8002 7.9999C13.0123 7.9999 13.2158 7.91562 13.3658 7.76559C13.5159 7.61556 13.6002 7.41208 13.6002 7.1999V3.1999C13.6002 2.98773 13.5159 2.78425 13.3658 2.63422C13.2158 2.48419 13.0123 2.3999 12.8002 2.3999H8.80016Z" fill="#4F39F6"/>
<path d="M3.9999 4C3.57556 4 3.16859 4.16857 2.86853 4.46863C2.56847 4.76869 2.3999 5.17565 2.3999 5.6V12C2.3999 12.4243 2.56847 12.8313 2.86853 13.1314C3.16859 13.4314 3.57556 13.6 3.9999 13.6H10.3999C10.8242 13.6 11.2312 13.4314 11.5313 13.1314C11.8313 12.8313 11.9999 12.4243 11.9999 12V9.6C11.9999 9.38783 11.9156 9.18434 11.7656 9.03431C11.6156 8.88429 11.4121 8.8 11.1999 8.8C10.9877 8.8 10.7842 8.88429 10.6342 9.03431C10.4842 9.18434 10.3999 9.38783 10.3999 9.6V12H3.9999V5.6H6.3999C6.61208 5.6 6.81556 5.51571 6.96559 5.36569C7.11562 5.21566 7.1999 5.01217 7.1999 4.8C7.1999 4.58783 7.11562 4.38434 6.96559 4.23431C6.81556 4.08429 6.61208 4 6.3999 4H3.9999Z" fill="#4F39F6"/>
</svg>
