<svg width="17" height="15" viewBox="0 0 17 15" fill="none" xmlns="http://www.w3.org/2000/svg">
<path d="M1.93186 1.93186C1.58364 2.28008 1.30741 2.69348 1.11895 3.14846C0.930494 3.60343 0.833496 4.09107 0.833496 4.58353C0.833496 5.07599 0.930494 5.56363 1.11895 6.0186C1.30741 6.47358 1.58364 6.88698 1.93186 7.2352L8.33353 13.6369L14.7352 7.2352C15.4385 6.53193 15.8335 5.5781 15.8335 4.58353C15.8335 3.58896 15.4385 2.63513 14.7352 1.93186C14.0319 1.2286 13.0781 0.833506 12.0835 0.833506C11.089 0.833506 10.1351 1.2286 9.43186 1.93186L8.33353 3.0302L7.2352 1.93186C6.88698 1.58364 6.47358 1.30741 6.0186 1.11895C5.56363 0.930494 5.07599 0.833496 4.58353 0.833496C4.09107 0.833496 3.60343 0.930494 3.14845 1.11895C2.69348 1.30741 2.28008 1.58364 1.93186 1.93186Z" stroke="#F4777C" stroke-width="1.66667" stroke-linecap="round" stroke-linejoin="round"/>
</svg>
