<svg width="115" height="16" viewBox="0 0 115 16" fill="none" xmlns="http://www.w3.org/2000/svg">
<path d="M7.605 6.37H6.487C6.461 5.15667 5.68533 4.55 4.16 4.55C3.536 4.55 3.03333 4.693 2.652 4.979C2.27067 5.25633 2.08 5.62467 2.08 6.084C2.08 6.43067 2.19267 6.708 2.418 6.916C2.652 7.11533 3.05067 7.28867 3.614 7.436L5.824 8.008C7.228 8.38067 7.93 9.16067 7.93 10.348C7.93 11.206 7.58767 11.9037 6.903 12.441C6.29633 12.909 5.42533 13.143 4.29 13.143C2.85133 13.143 1.807 12.7097 1.157 11.843C0.810333 11.375 0.628333 10.7467 0.611 9.958H1.729V9.984C1.729 10.66 1.95867 11.1843 2.418 11.557C2.886 11.921 3.536 12.103 4.368 12.103C5.13067 12.103 5.69833 11.9773 6.071 11.726C6.513 11.4227 6.734 10.998 6.734 10.452C6.734 9.75867 6.16633 9.269 5.031 8.983L2.717 8.385C1.50367 8.073 0.897 7.358 0.897 6.24C0.897 5.356 1.23067 4.67133 1.898 4.186C2.47867 3.76133 3.24567 3.549 4.199 3.549C5.551 3.549 6.51733 3.94333 7.098 4.732C7.436 5.19133 7.605 5.68967 7.605 6.227C7.605 6.253 7.605 6.30067 7.605 6.37ZM14.6676 13H13.6146V11.947C13.1379 12.7443 12.4272 13.143 11.4826 13.143C10.8326 13.143 10.3126 12.9827 9.92255 12.662C9.54122 12.3327 9.35055 11.895 9.35055 11.349V6.318H10.4036V10.92C10.4036 11.31 10.5292 11.622 10.7806 11.856C11.0319 12.09 11.3699 12.207 11.7946 12.207C12.3492 12.207 12.7912 12.0077 13.1206 11.609C13.4499 11.2017 13.6146 10.6557 13.6146 9.971V6.318H14.6676V13ZM16.3042 15.782V6.318H17.2922V7.345C17.7862 6.565 18.4969 6.175 19.4242 6.175C20.3689 6.175 21.0969 6.539 21.6082 7.267C22.0589 7.89967 22.2842 8.73167 22.2842 9.763C22.2842 10.8637 21.9896 11.7217 21.4002 12.337C20.8889 12.8743 20.2259 13.143 19.4112 13.143C18.5879 13.143 17.9076 12.844 17.3702 12.246V15.782H16.3042ZM19.2422 7.163C18.6789 7.163 18.2239 7.39267 17.8772 7.852C17.5392 8.31133 17.3702 8.92667 17.3702 9.698C17.3702 10.4953 17.5652 11.1193 17.9552 11.57C18.2846 11.9513 18.7136 12.142 19.2422 12.142C19.8316 12.142 20.2996 11.921 20.6462 11.479C21.0016 11.0283 21.1792 10.4347 21.1792 9.698C21.1792 8.88333 20.9799 8.242 20.5812 7.774C20.2259 7.36667 19.7796 7.163 19.2422 7.163ZM23.4009 15.782V6.318H24.3889V7.345C24.8829 6.565 25.5936 6.175 26.5209 6.175C27.4656 6.175 28.1936 6.539 28.7049 7.267C29.1556 7.89967 29.3809 8.73167 29.3809 9.763C29.3809 10.8637 29.0862 11.7217 28.4969 12.337C27.9856 12.8743 27.3226 13.143 26.5079 13.143C25.6846 13.143 25.0042 12.844 24.4669 12.246V15.782H23.4009ZM26.3389 7.163C25.7756 7.163 25.3206 7.39267 24.9739 7.852C24.6359 8.31133 24.4669 8.92667 24.4669 9.698C24.4669 10.4953 24.6619 11.1193 25.0519 11.57C25.3812 11.9513 25.8102 12.142 26.3389 12.142C26.9282 12.142 27.3962 11.921 27.7429 11.479C28.0982 11.0283 28.2759 10.4347 28.2759 9.698C28.2759 8.88333 28.0766 8.242 27.6779 7.774C27.3226 7.36667 26.8762 7.163 26.3389 7.163ZM33.3186 6.175C34.3239 6.175 35.0909 6.526 35.6196 7.228C36.0876 7.83467 36.3216 8.658 36.3216 9.698C36.3216 10.8593 36.0183 11.7433 35.4116 12.35C34.8916 12.8787 34.1896 13.143 33.3056 13.143C32.2829 13.143 31.5029 12.8007 30.9656 12.116C30.4976 11.518 30.2636 10.712 30.2636 9.698C30.2636 8.51933 30.5713 7.61367 31.1866 6.981C31.7153 6.44367 32.4259 6.175 33.3186 6.175ZM33.3186 7.15C32.7119 7.15 32.2353 7.37967 31.8886 7.839C31.5419 8.28967 31.3686 8.90933 31.3686 9.698C31.3686 10.5213 31.5636 11.1497 31.9536 11.583C32.2916 11.9643 32.7423 12.155 33.3056 12.155C33.9036 12.155 34.3673 11.9383 34.6966 11.505C35.0346 11.0717 35.2036 10.4693 35.2036 9.698C35.2036 8.84867 35.0129 8.19867 34.6316 7.748C34.3023 7.34933 33.8646 7.15 33.3186 7.15ZM37.7893 6.318H38.7773V7.54C39.1673 6.62133 39.7826 6.162 40.6233 6.162C40.7273 6.162 40.8529 6.175 41.0003 6.201V7.293C40.3069 7.30167 39.8303 7.40133 39.5703 7.592C39.0936 7.93867 38.8553 8.58433 38.8553 9.529V13H37.7893V6.318ZM44.6682 6.318V7.176H43.3032V11.622C43.3032 11.778 43.3552 11.9123 43.4592 12.025C43.5719 12.129 43.7149 12.181 43.8882 12.181C44.0529 12.181 44.3042 12.142 44.6422 12.064L44.7592 13C44.2219 13.0953 43.8145 13.143 43.5372 13.143C42.6792 13.143 42.2502 12.792 42.2502 12.09V7.176H41.3402V6.318H42.2502V4.953L43.3032 4.472V6.318H44.6682ZM51.0626 13.624C50.6812 13.6933 50.3086 13.728 49.9446 13.728C48.4886 13.728 47.3706 13.2167 46.5906 12.194C45.9406 11.3533 45.6156 10.283 45.6156 8.983C45.6156 7.449 46.1529 6.20533 47.2276 5.252C48.0769 4.498 49.0866 4.121 50.2566 4.121C51.7299 4.121 52.8956 4.57167 53.7536 5.473C54.5162 6.279 54.8976 7.319 54.8976 8.593C54.8976 9.46833 54.7069 10.1963 54.3256 10.777C53.9269 11.3837 53.3766 11.687 52.6746 11.687C52.1892 11.687 51.8209 11.5397 51.5696 11.245C51.1969 11.531 50.7506 11.674 50.2306 11.674C49.4419 11.674 48.8396 11.4097 48.4236 10.881C48.0769 10.439 47.9036 9.867 47.9036 9.165C47.9036 8.28967 48.1592 7.60933 48.6706 7.124C49.0866 6.74267 49.6196 6.539 50.2696 6.513C50.6682 6.513 51.0539 6.617 51.4266 6.825L52.0246 6.344H52.3496V10.465C52.3496 10.6557 52.5142 10.751 52.8436 10.751C53.1816 10.751 53.4546 10.569 53.6626 10.205C53.8706 9.841 53.9746 9.36 53.9746 8.762C53.9746 7.53133 53.5976 6.578 52.8436 5.902C52.1936 5.31267 51.3312 5.018 50.2566 5.018C49.2599 5.018 48.4062 5.369 47.6956 6.071C46.9242 6.83367 46.5386 7.79567 46.5386 8.957C46.5386 10.2743 46.9199 11.2883 47.6826 11.999C48.3586 12.6317 49.2642 12.948 50.3996 12.948C50.7202 12.948 51.0539 12.922 51.4006 12.87V13.208L51.0626 13.624ZM51.4136 7.514C51.0842 7.39267 50.7766 7.332 50.4906 7.332C49.9966 7.332 49.5979 7.49667 49.2946 7.826C48.9912 8.15533 48.8396 8.58867 48.8396 9.126C48.8396 9.672 48.9782 10.101 49.2556 10.413C49.5329 10.725 49.9142 10.881 50.3996 10.881C50.7896 10.881 51.1276 10.7683 51.4136 10.543V7.514ZM58.9631 6.318V7.176H57.5981V11.622C57.5981 11.778 57.6501 11.9123 57.7541 12.025C57.8668 12.129 58.0098 12.181 58.1831 12.181C58.3478 12.181 58.5991 12.142 58.9371 12.064L59.0541 13C58.5168 13.0953 58.1095 13.143 57.8321 13.143C56.9741 13.143 56.5451 12.792 56.5451 12.09V7.176H55.6351V6.318H56.5451V4.953L57.5981 4.472V6.318H58.9631ZM62.8225 6.318V7.176H61.4575V11.622C61.4575 11.778 61.5095 11.9123 61.6135 12.025C61.7262 12.129 61.8692 12.181 62.0425 12.181C62.2072 12.181 62.4585 12.142 62.7965 12.064L62.9135 13C62.3762 13.0953 61.9688 13.143 61.6915 13.143C60.8335 13.143 60.4045 12.792 60.4045 12.09V7.176H59.4945V6.318H60.4045V4.953L61.4575 4.472V6.318H62.8225ZM64.0559 6.318H65.0439V7.54C65.4339 6.62133 66.0492 6.162 66.8899 6.162C66.9939 6.162 67.1195 6.175 67.2669 6.201V7.293C66.5735 7.30167 66.0969 7.40133 65.8369 7.592C65.3602 7.93867 65.1219 8.58433 65.1219 9.529V13H64.0559V6.318ZM74.2498 12.103V12.961C73.9551 13.065 73.7255 13.117 73.5608 13.117C72.8675 13.117 72.4905 12.8007 72.4298 12.168C71.9531 12.818 71.1948 13.143 70.1548 13.143C69.4355 13.143 68.8765 12.9437 68.4778 12.545C68.1311 12.1983 67.9578 11.752 67.9578 11.206C67.9578 10.582 68.1788 10.101 68.6208 9.763C68.8721 9.57233 69.3965 9.386 70.1938 9.204L72.3778 8.71L72.3908 8.151C72.3908 7.48367 71.8881 7.15 70.8828 7.15C69.9208 7.15 69.4051 7.54 69.3358 8.32H68.2568C68.2828 7.73067 68.4301 7.28 68.6988 6.968C69.1581 6.43933 69.9035 6.175 70.9348 6.175C72.6075 6.175 73.4438 6.78167 73.4438 7.995V11.726C73.4438 12.0553 73.5868 12.22 73.8728 12.22C73.9075 12.22 73.9985 12.194 74.1458 12.142C74.1978 12.1247 74.2325 12.1117 74.2498 12.103ZM72.3908 9.581L70.6748 10.023C70.0595 10.179 69.6348 10.3393 69.4008 10.504C69.1755 10.6687 69.0628 10.8983 69.0628 11.193C69.0628 11.8777 69.5048 12.22 70.3888 12.22C71.0128 12.22 71.5415 12.0163 71.9748 11.609C72.2521 11.3577 72.3908 11.0717 72.3908 10.751V9.581ZM75.8215 11.791C76.0035 11.791 76.1552 11.8517 76.2765 11.973C76.3978 12.0943 76.4585 12.246 76.4585 12.428C76.4585 12.6013 76.3978 12.753 76.2765 12.883C76.1552 13.0043 76.0035 13.065 75.8215 13.065C75.6482 13.065 75.4965 13.0043 75.3665 12.883C75.2452 12.753 75.1845 12.6013 75.1845 12.428C75.1845 12.246 75.2452 12.0943 75.3665 11.973C75.4965 11.8517 75.6482 11.791 75.8215 11.791ZM82.7533 8.151H81.5833C81.5487 7.48367 81.1023 7.15 80.2443 7.15C79.8023 7.15 79.4513 7.23667 79.1913 7.41C78.94 7.57467 78.8143 7.8 78.8143 8.086C78.8143 8.51933 79.226 8.83133 80.0493 9.022L81.0763 9.256C81.7437 9.412 82.2247 9.633 82.5193 9.919C82.814 10.205 82.9613 10.595 82.9613 11.089C82.9613 11.7217 82.7143 12.2243 82.2203 12.597C81.7263 12.961 81.059 13.143 80.2183 13.143C79.2997 13.143 78.602 12.9263 78.1253 12.493C77.7267 12.1377 77.5143 11.6653 77.4883 11.076H78.6973C78.7667 11.3793 78.862 11.6003 78.9833 11.739C79.2173 12.0163 79.655 12.155 80.2963 12.155C80.773 12.155 81.15 12.0683 81.4273 11.895C81.7133 11.713 81.8563 11.4747 81.8563 11.18C81.8563 10.738 81.514 10.4347 80.8293 10.27L79.8283 10.036C79.0657 9.854 78.5327 9.63733 78.2293 9.386C77.8827 9.1 77.7093 8.68833 77.7093 8.151C77.7093 7.54433 77.939 7.06333 78.3983 6.708C78.8663 6.35267 79.4903 6.175 80.2703 6.175C81.085 6.175 81.7177 6.37867 82.1683 6.786C82.5583 7.14133 82.7533 7.59633 82.7533 8.151ZM90.3221 12.103V12.961C90.0274 13.065 89.7977 13.117 89.6331 13.117C88.9397 13.117 88.5627 12.8007 88.5021 12.168C88.0254 12.818 87.2671 13.143 86.2271 13.143C85.5077 13.143 84.9487 12.9437 84.5501 12.545C84.2034 12.1983 84.0301 11.752 84.0301 11.206C84.0301 10.582 84.2511 10.101 84.6931 9.763C84.9444 9.57233 85.4687 9.386 86.2661 9.204L88.4501 8.71L88.4631 8.151C88.4631 7.48367 87.9604 7.15 86.9551 7.15C85.9931 7.15 85.4774 7.54 85.4081 8.32H84.3291C84.3551 7.73067 84.5024 7.28 84.7711 6.968C85.2304 6.43933 85.9757 6.175 87.0071 6.175C88.6797 6.175 89.5161 6.78167 89.5161 7.995V11.726C89.5161 12.0553 89.6591 12.22 89.9451 12.22C89.9797 12.22 90.0707 12.194 90.2181 12.142C90.2701 12.1247 90.3047 12.1117 90.3221 12.103ZM88.4631 9.581L86.7471 10.023C86.1317 10.179 85.7071 10.3393 85.4731 10.504C85.2477 10.6687 85.1351 10.8983 85.1351 11.193C85.1351 11.8777 85.5771 12.22 86.4611 12.22C87.0851 12.22 87.6137 12.0163 88.0471 11.609C88.3244 11.3577 88.4631 11.0717 88.4631 10.751V9.581Z" fill="#666666"/>
<a href="mailto:support@salla.sa">
<rect fill="black" fill-opacity="0" y="0.245999" width="90.5951" height="14.508"/>
</a>
<path d="M112.433 13.8882H101.567C100.917 13.8874 100.293 13.6287 99.8336 13.1688C99.3738 12.7089 99.1152 12.0855 99.1145 11.4352V4.5639C99.1152 3.91366 99.3739 3.29026 99.8336 2.83047C100.293 2.37068 100.917 2.11205 101.567 2.11133H112.433C113.083 2.11205 113.707 2.37067 114.166 2.83044C114.626 3.29022 114.885 3.91362 114.886 4.5639V11.4352C114.885 12.0856 114.627 12.7091 114.167 13.169C113.707 13.6288 113.083 13.8875 112.433 13.8882ZM101.567 3.25419C101.22 3.25455 100.887 3.39265 100.641 3.63819C100.396 3.88373 100.258 4.21665 100.257 4.5639V11.4352C100.258 11.7825 100.396 12.1156 100.641 12.3612C100.887 12.6069 101.22 12.745 101.567 12.7454H112.433C112.78 12.745 113.113 12.6069 113.359 12.3612C113.605 12.1156 113.743 11.7826 113.743 11.4352V4.5639C113.743 4.21661 113.604 3.88369 113.359 3.63816C113.113 3.39264 112.78 3.25455 112.433 3.25419H101.567Z" fill="#391462"/>
<path d="M106.993 9.53816C106.514 9.54288 106.047 9.38586 105.667 9.09245L99.5563 4.2225C99.4378 4.128 99.3616 3.99028 99.3447 3.83965C99.3277 3.68902 99.3712 3.53782 99.4658 3.4193C99.5603 3.30079 99.698 3.22467 99.8486 3.2077C99.9992 3.19072 100.15 3.23428 100.269 3.32879L106.378 8.19873C106.559 8.32674 106.775 8.39523 106.996 8.39466C107.217 8.39408 107.433 8.32447 107.612 8.19553L113.646 3.33108C113.764 3.23596 113.915 3.19158 114.066 3.2077C114.216 3.22382 114.354 3.29911 114.45 3.41702C114.545 3.53493 114.589 3.68579 114.573 3.83642C114.557 3.98705 114.481 4.1251 114.364 4.22022L108.332 9.08467C107.95 9.38325 107.478 9.54316 106.993 9.53816Z" fill="#391462"/>
</svg>
