<svg width="20" height="16" viewBox="0 0 20 16" fill="none" xmlns="http://www.w3.org/2000/svg">
<path d="M18.8889 2.28571C18.2752 2.28571 17.7778 1.77403 17.7778 1.14286C17.7778 0.51168 18.2752 0 18.8889 0C19.5025 0 20 0.51168 20 1.14286C20 1.77403 19.5025 2.28571 18.8889 2.28571ZM18.8889 9.14286C18.2752 9.14286 17.7778 8.6312 17.7778 8C17.7778 7.3688 18.2752 6.85714 18.8889 6.85714C19.5025 6.85714 20 7.3688 20 8C20 8.6312 19.5025 9.14286 18.8889 9.14286ZM17.7778 14.8571C17.7778 15.4883 18.2752 16 18.8889 16C19.5025 16 20 15.4883 20 14.8571C20 14.2259 19.5025 13.7143 18.8889 13.7143C18.2752 13.7143 17.7778 14.2259 17.7778 14.8571ZM14.4444 0C15.0581 0 15.5556 0.51168 15.5556 1.14286C15.5556 1.77403 15.0581 2.28571 14.4444 2.28571H1.11111C0.497444 2.28571 0 1.77403 0 1.14286C0 0.51168 0.497444 0 1.11111 0H14.4444ZM15.5556 8C15.5556 7.3688 15.0581 6.85714 14.4444 6.85714H1.11111C0.497444 6.85714 0 7.3688 0 8C0 8.6312 0.497444 9.14286 1.11111 9.14286H14.4444C15.0581 9.14286 15.5556 8.6312 15.5556 8ZM14.4444 13.7143C15.0581 13.7143 15.5556 14.2259 15.5556 14.8571C15.5556 15.4883 15.0581 16 14.4444 16H1.11111C0.497444 16 0 15.4883 0 14.8571C0 14.2259 0.497444 13.7143 1.11111 13.7143H14.4444Z" fill="#A5A5A5"/>
</svg>
