<svg width="16" height="16" viewBox="0 0 16 16" fill="none" xmlns="http://www.w3.org/2000/svg">
<g clip-path="url(#clip0_308_1676)">
<path fill-rule="evenodd" clip-rule="evenodd" d="M8 0.179688C3.625 0.179688 0.234375 3.38438 0.234375 7.7125C0.234375 9.97656 1.1625 11.9328 2.67344 13.2844C2.8 13.3984 2.87656 13.5562 2.88281 13.7266L2.925 15.1078C2.93906 15.5484 3.39375 15.8344 3.79688 15.6578L5.3375 14.9781C5.46875 14.9203 5.61406 14.9094 5.75156 14.9469C6.45937 15.1422 7.21406 15.2453 8 15.2453C12.375 15.2453 15.7656 12.0406 15.7656 7.7125C15.7656 3.38438 12.375 0.179688 8 0.179688Z" fill="url(#paint0_linear_308_1676)"/>
<path fill-rule="evenodd" clip-rule="evenodd" d="M3.33735 9.91566L5.6186 6.29691C5.9811 5.72191 6.75923 5.57816 7.30298 5.98597L9.11704 7.34691C9.28423 7.47191 9.51235 7.47034 9.67798 7.34534L12.128 5.48597C12.4545 5.23753 12.8827 5.62972 12.6624 5.97659L10.3827 9.59378C10.0202 10.1688 9.24204 10.3125 8.69829 9.90472L6.88423 8.54378C6.71704 8.41878 6.48892 8.42034 6.32329 8.54534L3.87173 10.4063C3.54517 10.6547 3.11704 10.2625 3.33735 9.91566Z" fill="white"/>
</g>
<defs>
<linearGradient id="paint0_linear_308_1676" x1="8" y1="0.179688" x2="8" y2="15.7109" gradientUnits="userSpaceOnUse">
<stop stop-color="#00B2FF"/>
<stop offset="1" stop-color="#006AFF"/>
</linearGradient>
<clipPath id="clip0_308_1676">
<rect width="16" height="16" fill="white"/>
</clipPath>
</defs>
</svg>
