<svg width="24" height="24" viewBox="0 0 24 24" fill="none" xmlns="http://www.w3.org/2000/svg">
<path d="M12 24C18.6274 24 24 18.6274 24 12C24 5.37258 18.6274 0 12 0C5.37258 0 0 5.37258 0 12C0 18.6274 5.37258 24 12 24Z" fill="#438611"/>
<path d="M11.8797 9.8802C11.8397 9.5202 12.0397 9.1602 12.3997 9.2402C12.6797 9.2802 12.9997 9.5602 12.8397 9.8402C12.5997 10.2802 11.9597 10.2802 11.5597 10.5202C11.5997 10.7602 12.7597 10.4802 12.9597 10.4802C13.1597 10.4802 13.3597 10.5602 13.2397 10.8002C13.1197 11.0402 12.7197 11.0402 12.4797 11.0802C12.2397 11.1202 11.8397 11.1202 11.7197 11.3202C11.4797 11.6402 11.9597 11.6802 12.1197 11.7602C12.5197 11.9602 11.8797 12.1602 11.7197 12.1202C11.1197 12.0002 10.9997 11.6802 10.6397 11.2802C10.2797 11.7602 9.15969 12.8402 8.91969 11.7202C8.51969 11.8802 8.11969 12.0802 7.67969 12.1202C7.87969 11.8402 8.27969 11.7202 8.59969 11.5602C8.99969 11.3602 8.99969 11.0002 9.23969 10.6802C9.31969 10.8002 9.23969 10.9602 9.27969 11.1202C9.59969 10.9602 9.99969 10.6402 9.83969 10.2402C9.83969 10.2002 9.35969 9.2402 9.75969 9.4002C10.1197 9.5602 9.99969 9.9202 10.0797 10.2002C10.1997 10.7202 9.95969 11.0002 9.55969 11.3202C9.39969 11.4402 8.95969 11.9202 9.47969 11.9202C9.83969 11.9202 10.1597 11.5202 10.3597 11.2802C10.5997 10.9602 10.5197 10.6402 10.3597 10.2802C10.2397 10.0002 9.95969 9.4002 10.3197 9.2002C10.5997 9.6402 10.7197 10.1602 10.8397 10.6802C10.9197 11.1202 10.9997 11.5602 11.4797 11.6802C11.4397 11.3602 11.6397 11.1202 11.9197 11.0002C11.7197 10.8402 10.5997 11.0402 11.0397 10.4402C11.0797 10.1602 11.8797 10.0402 11.8797 9.8802Z" fill="#F5F5F5"/>
<path d="M5.75966 11.3595C5.95966 11.9195 6.63966 11.7195 7.03966 11.5595C7.67966 11.2395 7.67966 10.7595 7.67966 10.1195C7.43966 10.2395 7.47966 10.6795 7.39966 10.8795C7.23966 11.1995 6.71966 11.4795 6.35966 11.4395C5.83966 11.3595 5.59966 10.4795 5.99966 10.1595C6.07966 10.4395 5.87966 11.0395 6.35966 11.0795C6.71966 11.1195 7.43966 10.6795 7.31966 10.2795C6.83966 10.4395 6.55966 10.2795 6.71966 9.75946C6.83966 9.27946 7.31966 9.63946 7.51966 9.87946C8.27966 9.43946 6.91966 7.75946 7.71966 7.31946C7.87966 7.59946 8.11966 7.95946 7.91966 8.23946C7.67966 8.55946 7.91966 9.23946 7.95966 9.59946C8.35966 9.23946 8.03966 9.87946 8.35966 9.91946C8.55966 9.95946 8.63966 9.43946 8.75966 9.43946C8.79966 9.55946 8.79966 9.91946 8.99966 9.87946C9.23966 9.79946 8.95966 9.47946 9.19966 9.39946C9.27966 9.59946 9.23966 10.1995 8.95966 10.1595C8.71966 10.1195 8.75966 9.95946 8.47966 10.1195C8.23966 10.2395 8.15966 10.1195 7.99966 9.99946C7.95966 10.4795 8.11966 10.9995 7.83966 11.4395C7.59966 11.7995 7.11966 11.9995 6.71966 12.0795C5.67966 12.2795 5.39966 11.2395 5.75966 10.3995C5.83966 10.6395 5.67966 11.0795 5.75966 11.3595ZM15.5197 11.5595C15.7197 12.0795 16.1197 10.9995 16.2397 10.8395C16.5597 10.3595 17.0397 11.5995 17.2397 10.7995C17.3597 10.2795 17.1997 9.75946 17.1597 9.23946C17.1197 8.87946 16.9997 8.55946 16.7597 8.27946C16.5197 7.95946 16.2797 7.67946 16.3997 7.27946C16.7997 7.43946 16.7997 7.75946 16.9997 8.07946C17.0397 7.83946 16.8797 7.51946 17.0397 7.31946C17.2397 7.03946 17.3997 7.79946 17.3997 7.87946C17.4397 8.07946 17.2397 8.15946 17.3597 8.47946C17.4397 8.71946 17.5997 8.95946 17.7597 9.15946C17.7197 8.91946 17.3597 7.27946 17.7597 7.27946C17.8797 7.27946 17.9997 7.75946 17.9997 7.83946C18.0797 8.07946 17.9197 8.27946 17.9197 8.55946C17.8797 9.03946 17.9597 9.59946 18.2797 9.95946C18.4397 10.1595 19.0397 10.8795 18.7197 11.1195C18.4797 10.8395 18.3197 10.5195 18.1197 10.2395C18.1197 10.5595 18.1997 10.9195 18.0397 11.1595C17.8797 11.0795 17.9597 10.5595 17.9597 10.4395C17.9597 9.99946 17.6797 9.63946 17.4397 9.27946C17.3597 9.87946 17.8397 10.9995 17.2797 11.4395C16.9197 11.7595 16.4397 11.0395 16.3197 11.3195C16.1997 11.5195 15.9197 12.2395 15.5997 12.1595C15.1997 12.0795 14.9197 10.9595 15.3597 10.8395C15.3997 11.0395 15.3997 11.3195 15.5197 11.5595Z" fill="#F5F5F5"/>
<path d="M6.95976 8.83978C7.23976 8.87978 6.95976 7.91978 6.95976 7.75978C6.99976 7.59978 7.11976 7.51978 7.19976 7.67978C7.31976 7.91978 7.31976 8.19978 7.35976 8.43978C7.35976 8.63978 7.39976 8.87978 7.23976 9.03978C6.99976 9.27978 6.67976 9.15978 6.55976 8.83978C5.99976 9.31978 6.71976 10.1598 6.23976 10.6398C6.15976 10.1998 6.23976 9.71978 6.07976 9.31978C5.99976 9.11978 5.63976 9.19978 5.59976 8.83978C5.59976 8.67978 5.71976 8.23978 5.55976 8.11978C5.47976 8.27978 5.39976 9.51978 4.99976 9.15978C4.67976 8.91978 4.75976 8.11978 4.87976 7.79978C5.11976 7.91978 4.83976 8.79978 5.15976 8.83978C5.31976 8.87978 5.35976 8.19978 5.39976 8.07978C5.51976 7.87978 5.91976 7.31978 5.83976 7.87978C5.79976 8.11978 5.59976 8.87978 6.07976 8.83978C6.03976 8.43978 5.99976 8.03978 5.91976 7.63978C5.87976 7.43978 5.99976 7.03978 6.15976 7.39978C6.27976 7.63978 6.19976 7.75978 6.15976 7.99978C6.11976 8.27978 6.23976 8.55978 6.27976 8.79978C6.51976 8.59978 6.19976 7.83978 6.39976 7.51978C6.87976 7.79978 6.35976 8.75978 6.95976 8.83978ZM12.1198 8.91978C11.9198 9.19978 11.5598 8.95978 11.3998 8.75978C11.1998 8.99978 10.7998 9.39978 10.4798 9.07978C10.2398 8.83978 10.5198 8.39978 10.3198 8.19978C10.1998 8.39978 9.99976 9.35978 9.63976 8.91978C9.43976 8.67978 9.15976 7.83978 9.59976 7.63978C9.55976 7.95978 9.47976 8.31978 9.67976 8.59978C9.87976 8.87978 10.0798 8.15978 10.1598 7.99978C10.2798 7.71978 10.6798 7.23978 10.5998 7.83978C10.5598 8.07978 10.4798 8.63978 10.7198 8.79978C10.8798 8.91978 11.0798 8.71978 11.1598 8.59978C11.3198 8.39978 11.2398 8.07978 11.1998 7.83978C11.1598 7.63978 11.0798 7.39978 11.1998 7.19978C11.3598 6.95978 11.4798 7.51978 11.4798 7.63978C11.4798 7.75978 11.6398 8.99978 11.9198 8.59978C12.1998 8.23978 11.4398 7.43978 11.9598 7.23978C12.1598 7.15978 12.5198 7.95978 12.1198 7.71978C12.2398 8.07978 12.3998 8.59978 12.1198 8.91978ZM13.6398 9.39978C13.6798 9.91978 14.1198 11.3598 13.5198 11.6798C13.4398 11.5198 13.5198 11.2798 13.5598 11.0798C13.5998 10.7198 13.5198 10.3598 13.4798 10.0398C13.3998 9.27978 13.3198 8.71978 12.7998 8.11978C12.6798 7.95978 12.4798 7.83978 12.4398 7.59978C12.4398 7.51978 12.3998 7.15978 12.5598 7.23978C12.6798 7.27978 13.3598 7.87978 12.9998 7.87978C13.0398 7.95978 13.1998 8.27978 13.2798 8.27978C13.2798 8.07978 13.0398 7.47978 13.2798 7.35978C13.4798 7.23978 13.7198 7.99978 13.6398 8.15978C13.5598 8.35978 13.5598 8.47978 13.6398 8.75978C13.7198 9.07978 13.9198 9.35978 14.0798 9.63978C14.3198 10.0398 14.7998 10.5998 14.6798 11.1198C14.4398 10.9998 14.2798 10.4398 14.1598 10.1998C14.0798 9.99978 13.9998 9.79978 13.8798 9.63978C13.8398 9.59978 13.5998 9.27978 13.6398 9.47978V9.39978ZM19.1998 10.1598C19.2398 10.9998 18.9598 12.0798 17.9198 12.0798C17.9198 11.8398 18.4398 11.5998 18.5998 11.4798C18.9998 11.1598 18.9598 10.5598 18.9198 10.1198C18.8798 9.51978 18.8398 8.91978 18.7198 8.31978C18.6798 7.95978 18.4798 7.43978 18.7998 7.19978C18.9998 7.35978 19.2798 7.79978 19.1598 7.95978C18.9598 8.19978 19.1598 9.99978 19.1998 10.1598Z" fill="#F5F5F5"/>
<path d="M14.0799 11.9594C15.1199 11.3594 14.7999 10.0794 14.7199 9.07942C14.6799 8.79942 14.6799 8.51942 14.6399 8.23942C14.6399 8.03942 14.4799 7.75942 14.5599 7.55942C14.7599 7.03942 14.9199 7.51942 14.9599 7.83942C14.9999 8.03942 14.8399 8.07942 14.8799 8.23942C14.9199 8.55942 14.9199 8.87942 14.9599 9.19942C14.9999 9.71942 15.0799 10.2394 15.0399 10.7194C14.9599 11.4794 14.5599 12.3194 13.6399 12.1594C13.6799 12.0794 13.9599 12.0394 14.0799 11.9594ZM15.7599 9.95942C15.7999 10.3594 15.9599 11.0794 15.7599 11.4394C15.5999 11.6794 15.5999 11.2794 15.5599 11.2394C15.5199 10.9194 15.5199 10.5994 15.5199 10.2394C15.4399 9.35942 15.1599 8.47942 15.1599 7.63942C15.1599 6.55942 16.0799 8.23942 15.5599 8.15942C15.5999 8.75942 15.6799 9.35942 15.7599 9.95942ZM9.23992 7.91942C9.31992 8.11942 8.31992 8.63942 8.19992 8.63942C8.15992 8.43942 8.63992 8.15942 8.75992 8.07942C8.87992 7.95942 8.95992 7.95942 8.91992 7.79942C8.83992 7.63942 8.87992 7.35942 9.07992 7.27942C9.47992 7.15942 9.19992 7.75942 9.23992 7.91942ZM5.11992 11.4794C5.11992 11.7994 5.23992 11.6394 5.39992 11.5594C5.47992 11.7194 5.27992 12.1594 5.07992 11.9594C4.79992 11.6794 5.03992 11.0394 5.15992 10.7594C5.23992 10.9594 5.07992 11.2794 5.11992 11.4794ZM16.3999 8.99942C16.4399 8.83942 16.3199 8.67942 16.4399 8.51942C16.5999 8.31942 16.7599 8.55942 16.6799 8.63942C16.5999 8.71942 16.4799 8.55942 16.4799 8.79942C16.4799 8.91942 16.5599 9.15942 16.4399 9.27942C16.3599 9.23942 15.9999 8.71942 16.0399 8.63942C16.1999 8.47942 16.3599 8.95942 16.3999 8.99942ZM5.95992 9.67942C5.87992 9.83942 4.95992 10.3594 4.91992 10.2394C4.91992 10.1194 6.07992 9.43942 5.95992 9.67942ZM12.7599 11.7194C12.6399 12.0794 13.1599 11.7594 13.2799 11.7194C13.1199 11.9994 12.5599 12.2394 12.6399 11.7194C12.5999 11.7194 12.5199 11.7594 12.4799 11.7594C12.3999 11.6794 12.8799 11.3594 12.7599 11.7194ZM17.1199 11.5994C17.2399 11.5994 17.4399 11.9594 17.3199 12.0394C17.2399 12.1194 16.8799 12.1594 17.0799 11.9994C17.3199 11.7594 17.1199 11.5994 17.1199 11.5994ZM11.4799 9.55942C11.5199 9.47942 11.5199 9.35942 11.5599 9.27942C11.9599 9.59942 10.9199 10.1194 11.1199 9.35942C11.1999 9.43942 11.1999 9.55942 11.2799 9.59942C11.2799 9.51942 11.3199 9.39942 11.3199 9.31942C11.3999 9.39942 11.3999 9.51942 11.4799 9.55942ZM16.1599 10.0794C16.0399 9.91942 16.7599 9.47942 16.8799 9.39942C16.9599 9.51942 16.3999 9.95942 16.1599 10.0794ZM18.3999 8.47942C18.3199 8.23942 18.0799 7.75942 18.3199 7.55942C18.4799 7.67942 18.5599 8.27942 18.3999 8.47942ZM14.0399 7.67942C13.9999 7.59942 13.8799 7.51942 13.8799 7.39942C13.9199 7.23942 13.9999 7.27942 14.0799 7.35942C14.1999 7.51942 14.2799 7.95942 14.0799 8.07942C14.0799 7.95942 14.1199 7.79942 14.0399 7.67942ZM9.15992 8.75942C9.15992 8.99942 8.75992 9.23942 8.71992 8.91942C8.67992 8.79942 8.87992 8.35942 8.95992 8.47942C8.79992 8.83942 8.79992 8.95942 9.15992 8.75942Z" fill="#F5F5F5"/>
<path d="M14.1597 8.32023C14.3197 8.72023 14.2397 8.36023 14.3997 8.28023C14.6797 8.80023 13.7997 8.68023 13.9997 8.36023C14.0397 8.40023 14.0797 8.48023 14.0797 8.52023C14.1197 8.48023 14.1197 8.40023 14.1597 8.32023ZM16.7197 10.1602C16.5197 10.0002 16.7597 9.80023 16.8797 10.0002C16.9597 10.1202 16.9597 10.4402 16.7997 10.5202C16.7997 10.4002 16.8397 10.2402 16.7197 10.1602ZM8.51968 11.0402C8.51968 10.9602 8.47968 10.3602 8.59968 10.4402C8.75968 10.5202 8.71968 10.9602 8.51968 11.0402ZM6.83968 7.28023C6.87968 7.40023 6.91968 7.56023 6.99968 7.36023C7.31968 7.72023 6.19968 7.60023 6.59968 7.24023C6.59968 7.28023 6.67968 7.52023 6.83968 7.28023ZM10.9197 8.16023C10.9197 8.00023 10.6797 7.32023 10.8797 7.32023C11.1197 7.36023 11.0797 7.96023 10.9197 8.16023ZM5.31968 7.80023C5.19968 7.76023 5.39968 7.56023 5.31968 7.40023C5.23968 7.44023 5.15968 7.32023 5.23968 7.24023C5.55968 7.00023 5.43968 7.80023 5.31968 7.80023ZM15.6797 15.9202L15.5197 15.4402L15.3597 15.9202H6.59968C6.59968 15.9202 6.67968 16.6402 7.55968 16.6402H15.3197V17.2002H17.4397V15.9202H15.6797ZM17.0397 16.8802H15.5997V16.4802H17.0397V16.8802Z" fill="#F5F5F5"/>
</svg>
