<svg width="16" height="16" viewBox="0 0 16 16" fill="none" xmlns="http://www.w3.org/2000/svg">
<g clip-path="url(#clip0_404_5530)">
<path d="M14.9994 10.711C12.954 10.3744 12.0321 8.27921 11.9949 8.19028L11.9862 8.17307C11.882 7.96078 11.8572 7.78579 11.9145 7.65287C12.0264 7.39086 12.4548 7.25507 12.7379 7.16518C12.8201 7.13936 12.8976 7.1145 12.9616 7.08964C13.2408 6.97967 13.4397 6.86014 13.5717 6.72531C13.7285 6.5637 13.7591 6.40879 13.7572 6.30838C13.7524 6.06358 13.565 5.84556 13.2657 5.73941C13.1599 5.69725 13.0469 5.67582 12.9329 5.6763C12.8263 5.6748 12.7206 5.69633 12.6231 5.73941C12.384 5.85129 12.1698 5.91249 11.9853 5.9211C11.9126 5.91906 11.8409 5.9035 11.774 5.8752L11.7921 5.57972L11.795 5.53573C11.861 4.50011 11.9423 3.21204 11.5999 2.44704C11.3796 1.9429 11.0614 1.48752 10.6638 1.10734C10.3357 0.798681 9.95693 0.548942 9.54398 0.369113C8.99276 0.128621 8.3983 0.00302614 7.79692 0L7.75867 0L7.4957 0.00286875C7.15623 0.00286875 6.47633 0.0506813 5.74671 0.371981C5.33498 0.551517 4.95743 0.800954 4.63077 1.10925C4.23505 1.48917 3.91821 1.94347 3.69843 2.44609C3.35609 3.21013 3.43737 4.4982 3.5024 5.53286V5.53478L3.52343 5.87424C3.44413 5.90727 3.35877 5.92324 3.2729 5.9211C3.07973 5.9211 2.85023 5.8599 2.59109 5.73846C2.50965 5.70192 2.4212 5.68364 2.33195 5.68491C2.17065 5.68655 2.01264 5.73075 1.8739 5.81304C1.69604 5.91727 1.58129 6.06358 1.54973 6.2271C1.52965 6.3342 1.53061 6.54744 1.76776 6.76356C1.89876 6.88213 2.09001 6.9921 2.33768 7.08964C2.40271 7.11546 2.48016 7.13936 2.56145 7.16518C2.8445 7.25507 3.27385 7.39086 3.38573 7.65287C3.44215 7.78579 3.41729 7.96078 3.31306 8.17307L3.30541 8.19028C3.1057 8.62165 2.84624 9.02275 2.53467 9.38177C2.26585 9.69847 1.95281 9.9748 1.6052 10.2022C1.20978 10.4597 0.765373 10.6326 0.299914 10.71C0.212698 10.7241 0.133803 10.77 0.0785087 10.8389C0.0232143 10.9078 -0.00454479 10.9947 0.000607563 11.0829C0.00347631 11.1355 0.0159076 11.1881 0.0379013 11.2388V11.2398C0.111533 11.4109 0.280789 11.5553 0.556189 11.6825C0.892789 11.8384 1.39578 11.9694 2.05272 12.0717C2.08619 12.1348 2.12061 12.2926 2.14452 12.4007C2.16938 12.5154 2.1952 12.634 2.2325 12.7592C2.27266 12.895 2.37593 13.0576 2.64273 13.0576C2.74409 13.0576 2.8598 13.0346 2.99463 13.0088C3.19161 12.9706 3.46128 12.918 3.79692 12.918C3.98339 12.918 4.17655 12.9342 4.37067 12.9668C4.74552 13.0289 5.06873 13.2565 5.44263 13.5204C5.9896 13.9067 6.60925 14.3438 7.55594 14.3438L7.6334 14.3409C7.664 14.3428 7.7032 14.3438 7.74336 14.3438C8.69005 14.3438 9.3097 13.9067 9.85668 13.5214L9.85763 13.5204C10.2315 13.2575 10.5547 13.0299 10.9296 12.9677C11.1237 12.9352 11.3169 12.9189 11.5033 12.9189C11.8246 12.9189 12.079 12.9601 12.3056 13.004C12.4539 13.0327 12.5686 13.0471 12.6575 13.0471H12.6747C12.7641 13.051 12.852 13.024 12.9237 12.9705C12.9953 12.9169 13.0462 12.8403 13.0678 12.7535C13.1014 12.636 13.1307 12.5174 13.1557 12.3978C13.1777 12.2964 13.2141 12.1339 13.2466 12.0707C13.9035 11.9675 14.4065 11.8374 14.7431 11.6816C15.0176 11.5544 15.1868 11.41 15.2604 11.2398C15.2826 11.1899 15.2955 11.1364 15.2987 11.082C15.3036 10.9941 15.2757 10.9075 15.2204 10.8389C15.1651 10.7704 15.0864 10.7248 14.9994 10.711Z" fill="#A5A5A5"/>
</g>
<defs>
<clipPath id="clip0_404_5530">
<rect width="15.3" height="15.3" fill="white"/>
</clipPath>
</defs>
</svg>
