<svg width="18" height="18" viewBox="0 0 18 18" fill="none" xmlns="http://www.w3.org/2000/svg">
<path d="M2 7C1.60444 7 1.21776 7.1173 0.888861 7.33706C0.559963 7.55682 0.303617 7.86918 0.152242 8.23463C0.000866562 8.60009 -0.0387401 9.00222 0.0384303 9.39018C0.115601 9.77814 0.306082 10.1345 0.585787 10.4142C0.865492 10.6939 1.22186 10.8844 1.60982 10.9616C1.99778 11.0387 2.39992 10.9991 2.76537 10.8478C3.13082 10.6964 3.44318 10.44 3.66294 10.1111C3.8827 9.78224 4 9.39556 4 9C4 8.46957 3.78929 7.96086 3.41421 7.58579C3.03914 7.21071 2.53043 7 2 7ZM2 14C1.60444 14 1.21776 14.1173 0.888861 14.3371C0.559963 14.5568 0.303617 14.8692 0.152242 15.2346C0.000866562 15.6001 -0.0387401 16.0022 0.0384303 16.3902C0.115601 16.7781 0.306082 17.1345 0.585787 17.4142C0.865492 17.6939 1.22186 17.8844 1.60982 17.9616C1.99778 18.0387 2.39992 17.9991 2.76537 17.8478C3.13082 17.6964 3.44318 17.44 3.66294 17.1111C3.8827 16.7822 4 16.3956 4 16C4 15.4696 3.78929 14.9609 3.41421 14.5858C3.03914 14.2107 2.53043 14 2 14ZM9 4C9.39556 4 9.78224 3.8827 10.1111 3.66294C10.44 3.44318 10.6964 3.13082 10.8478 2.76537C10.9991 2.39992 11.0387 1.99778 10.9616 1.60982C10.8844 1.22186 10.6939 0.865492 10.4142 0.585787C10.1345 0.306082 9.77814 0.115601 9.39018 0.0384303C9.00222 -0.0387401 8.60009 0.000866562 8.23463 0.152242C7.86918 0.303617 7.55682 0.559962 7.33706 0.88886C7.1173 1.21776 7 1.60444 7 2C7 2.53043 7.21071 3.03914 7.58579 3.41421C7.96086 3.78929 8.46957 4 9 4ZM2 8.39371e-07C1.60444 8.39371e-07 1.21776 0.117299 0.888861 0.337062C0.559963 0.556824 0.303617 0.869182 0.152242 1.23463C0.000866562 1.60009 -0.0387401 2.00222 0.0384303 2.39018C0.115601 2.77814 0.306082 3.13451 0.585787 3.41421C0.865492 3.69392 1.22186 3.8844 1.60982 3.96157C1.99778 4.03874 2.39992 3.99914 2.76537 3.84776C3.13082 3.69638 3.44318 3.44004 3.66294 3.11114C3.8827 2.78224 4 2.39556 4 2C4 1.46957 3.78929 0.96086 3.41421 0.585787C3.03914 0.210714 2.53043 8.39371e-07 2 8.39371e-07ZM9 14C8.60444 14 8.21776 14.1173 7.88886 14.3371C7.55996 14.5568 7.30362 14.8692 7.15224 15.2346C7.00087 15.6001 6.96126 16.0022 7.03843 16.3902C7.1156 16.7781 7.30608 17.1345 7.58579 17.4142C7.86549 17.6939 8.22186 17.8844 8.60982 17.9616C8.99778 18.0387 9.39992 17.9991 9.76537 17.8478C10.1308 17.6964 10.4432 17.44 10.6629 17.1111C10.8827 16.7822 11 16.3956 11 16C11 15.4696 10.7893 14.9609 10.4142 14.5858C10.0391 14.2107 9.53043 14 9 14ZM9 7C8.60444 7 8.21776 7.1173 7.88886 7.33706C7.55996 7.55682 7.30362 7.86918 7.15224 8.23463C7.00087 8.60009 6.96126 9.00222 7.03843 9.39018C7.1156 9.77814 7.30608 10.1345 7.58579 10.4142C7.86549 10.6939 8.22186 10.8844 8.60982 10.9616C8.99778 11.0387 9.39992 10.9991 9.76537 10.8478C10.1308 10.6964 10.4432 10.44 10.6629 10.1111C10.8827 9.78224 11 9.39556 11 9C11 8.46957 10.7893 7.96086 10.4142 7.58579C10.0391 7.21071 9.53043 7 9 7Z" fill="white"/>
<path d="M16 4C16.3956 4 16.7822 3.8827 17.1111 3.66294C17.44 3.44318 17.6964 3.13082 17.8478 2.76537C17.9991 2.39992 18.0387 1.99778 17.9616 1.60982C17.8844 1.22186 17.6939 0.865492 17.4142 0.585787C17.1345 0.306082 16.7781 0.115601 16.3902 0.0384303C16.0022 -0.0387401 15.6001 0.000866562 15.2346 0.152242C14.8692 0.303617 14.5568 0.559962 14.3371 0.88886C14.1173 1.21776 14 1.60444 14 2C14 2.53043 14.2107 3.03914 14.5858 3.41421C14.9609 3.78929 15.4696 4 16 4ZM16 14C15.6044 14 15.2178 14.1173 14.8889 14.3371C14.56 14.5568 14.3036 14.8692 14.1522 15.2346C14.0009 15.6001 13.9613 16.0022 14.0384 16.3902C14.1156 16.7781 14.3061 17.1345 14.5858 17.4142C14.8655 17.6939 15.2219 17.8844 15.6098 17.9616C15.9978 18.0387 16.3999 17.9991 16.7654 17.8478C17.1308 17.6964 17.4432 17.44 17.6629 17.1111C17.8827 16.7822 18 16.3956 18 16C18 15.4696 17.7893 14.9609 17.4142 14.5858C17.0391 14.2107 16.5304 14 16 14ZM16 7C15.6044 7 15.2178 7.1173 14.8889 7.33706C14.56 7.55682 14.3036 7.86918 14.1522 8.23463C14.0009 8.60009 13.9613 9.00222 14.0384 9.39018C14.1156 9.77814 14.3061 10.1345 14.5858 10.4142C14.8655 10.6939 15.2219 10.8844 15.6098 10.9616C15.9978 11.0387 16.3999 10.9991 16.7654 10.8478C17.1308 10.6964 17.4432 10.44 17.6629 10.1111C17.8827 9.78224 18 9.39556 18 9C18 8.46957 17.7893 7.96086 17.4142 7.58579C17.0391 7.21071 16.5304 7 16 7Z" fill="white"/>
</svg>
