<svg width="9" height="9" viewBox="0 0 9 9" fill="none" xmlns="http://www.w3.org/2000/svg">
<path d="M3.88954 0.41445C4.06954 -0.13815 4.85134 -0.13815 5.03074 0.41445L5.67274 2.38965C5.71196 2.50994 5.78821 2.61476 5.89058 2.68911C5.99296 2.76347 6.11621 2.80356 6.24274 2.80365H8.31994C8.90134 2.80365 9.14254 3.54765 8.67274 3.88965L6.99274 5.11005C6.89016 5.18447 6.81378 5.28946 6.77454 5.40996C6.73531 5.53047 6.73524 5.6603 6.77434 5.78085L7.41634 7.75605C7.59634 8.30865 6.96334 8.76885 6.49234 8.42685L4.81234 7.20645C4.70986 7.13205 4.58648 7.09198 4.45984 7.09198C4.33321 7.09198 4.20982 7.13205 4.10734 7.20645L2.42734 8.42685C1.95694 8.76885 1.32454 8.30865 1.50394 7.75605L2.14594 5.78085C2.18505 5.6603 2.18498 5.53047 2.14574 5.40996C2.10651 5.28946 2.03012 5.18447 1.92754 5.11005L0.248141 3.89025C-0.221659 3.54825 0.0201408 2.80425 0.600941 2.80425H2.67754C2.80417 2.80428 2.92756 2.76425 3.03006 2.68989C3.13255 2.61553 3.20889 2.51064 3.24814 2.39025L3.89014 0.41505L3.88954 0.41445Z" fill="#CAD5E2"/>
</svg>
