<svg width="13" height="13" viewBox="0 0 13 13" fill="none" xmlns="http://www.w3.org/2000/svg">
<path d="M12.9813 4.70898C12.9365 4.57108 12.8174 4.47059 12.6739 4.44977L8.64387 3.86413L6.84153 0.21229C6.77739 0.0822907 6.64498 0 6.50002 0C6.35504 0 6.22266 0.0822907 6.15849 0.21229L4.35607 3.86413L0.326087 4.44977C0.182656 4.47059 0.0634476 4.57108 0.0186587 4.70895C-0.0261556 4.84685 0.0112193 4.9982 0.115041 5.09938L3.03109 7.94195L2.34281 11.9558C2.31828 12.0987 2.37703 12.243 2.49431 12.3283C2.56066 12.3765 2.63924 12.401 2.7182 12.401C2.77884 12.401 2.83967 12.3865 2.89538 12.3572L6.5 10.4621L10.1045 12.3572C10.2328 12.4247 10.3883 12.4135 10.5056 12.3282C10.6228 12.243 10.6816 12.0986 10.6571 11.9557L9.9686 7.94195L12.885 5.09936C12.9888 4.9982 13.0262 4.84685 12.9813 4.70898Z" fill="#D6D6D6"/>
</svg>
