<svg width="13" height="13" viewBox="0 0 13 13" fill="none" xmlns="http://www.w3.org/2000/svg">
<g clip-path="url(#clip0_1207_1713)">
<path d="M12.9813 5.00781C12.9365 4.86991 12.8174 4.76941 12.6739 4.74859L8.64387 4.16296L6.84153 0.511118C6.77739 0.381119 6.64498 0.298828 6.50002 0.298828C6.35504 0.298828 6.22266 0.381119 6.15849 0.511118L4.35607 4.16296L0.326087 4.74859C0.182656 4.76941 0.0634476 4.86991 0.0186587 5.00778C-0.0261556 5.14568 0.0112193 5.29703 0.115041 5.39821L3.03109 8.24078L2.34281 12.2546C2.31828 12.3975 2.37703 12.5419 2.49431 12.6271C2.56066 12.6753 2.63924 12.6998 2.7182 12.6998C2.77884 12.6998 2.83967 12.6854 2.89538 12.6561L6.5 10.761L10.1045 12.656C10.2328 12.7235 10.3883 12.7123 10.5056 12.6271C10.6228 12.5419 10.6816 12.3974 10.6571 12.2545L9.9686 8.24078L12.885 5.39818C12.9888 5.29703 13.0262 5.14568 12.9813 5.00781Z" fill="#FFC62A"/>
</g>
<defs>
<clipPath id="clip0_1207_1713">
<rect width="13" height="13" fill="white"/>
</clipPath>
</defs>
</svg>
