<svg width="16" height="16" viewBox="0 0 16 16" fill="none" xmlns="http://www.w3.org/2000/svg">
<g clip-path="url(#clip0_308_1688)">
<path d="M13.6 0H2.4C1.07452 0 0 1.07452 0 2.4V13.6C0 14.9255 1.07452 16 2.4 16H13.6C14.9255 16 16 14.9255 16 13.6V2.4C16 1.07452 14.9255 0 13.6 0Z" fill="#1DA1F3"/>
<path d="M13.6562 4.74992C13.2858 4.99567 12.8508 5.12616 12.4062 5.12492C12.8815 4.84493 13.2374 4.40009 13.4062 3.87492C13.0123 4.20799 12.5158 4.39555 12 4.40617C11.6599 4.05787 11.2161 3.82925 10.735 3.75463C10.254 3.68 9.76174 3.76339 9.33212 3.99229C8.90251 4.22118 8.55871 4.58323 8.35233 5.0241C8.14595 5.46498 8.08811 5.96089 8.1875 6.43742C7.31229 6.39122 6.45659 6.16146 5.67595 5.76306C4.8953 5.36466 4.20718 4.80654 3.65625 4.12492C3.38666 4.61275 3.30772 5.18327 3.43474 5.72597C3.56175 6.26867 3.88567 6.7449 4.34375 7.06242C3.99804 7.06731 3.65585 6.99246 3.34375 6.84367C3.35215 7.34706 3.52914 7.83308 3.84641 8.22399C4.16367 8.6149 4.60287 8.88812 5.09375 8.99992C4.76699 9.08526 4.4252 9.09594 4.09375 9.03117C4.23673 9.47712 4.5153 9.86734 4.89062 10.1474C5.26594 10.4275 5.7193 10.5835 6.1875 10.5937C5.19867 11.1935 4.06278 11.5073 2.90625 11.4999C3.87485 12.1323 4.99994 12.4834 6.15628 12.5142C7.31261 12.5451 8.45482 12.2544 9.45575 11.6746C10.4567 11.0948 11.2771 10.2485 11.8256 9.2301C12.3741 8.21167 12.6292 7.061 12.5625 5.90617C12.9749 5.56894 13.3424 5.18038 13.6562 4.74992Z" fill="white"/>
</g>
<defs>
<clipPath id="clip0_308_1688">
<rect width="16" height="16" fill="white"/>
</clipPath>
</defs>
</svg>
