<svg width="17" height="17" viewBox="0 0 17 17" fill="none" xmlns="http://www.w3.org/2000/svg">
<path d="M15.5807 4.10824C15.0483 4.33922 14.4852 4.49192 13.9091 4.56157C14.5169 4.19842 14.9725 3.62713 15.1911 2.95365C14.6199 3.2937 13.9946 3.53328 13.3424 3.66199C12.9064 3.18923 12.3259 2.87453 11.6918 2.76726C11.0578 2.65998 10.406 2.7662 9.83883 3.06925C9.27163 3.37229 8.82106 3.85503 8.55777 4.44175C8.29449 5.02846 8.23339 5.68597 8.38406 6.31115C7.22907 6.25274 6.09929 5.952 5.06811 5.42847C4.03693 4.90495 3.12741 4.17035 2.39865 3.2724C2.14303 3.71877 2.00872 4.22428 2.00906 4.73865C2.00816 5.21634 2.12538 5.68684 2.35031 6.10826C2.57523 6.52968 2.90087 6.88895 3.29823 7.15407C2.83638 7.1415 2.3844 7.01757 1.98073 6.79282V6.82824C1.98419 7.49754 2.21873 8.14509 2.64466 8.66138C3.0706 9.17766 3.66179 9.53098 4.31823 9.66157C4.06554 9.73847 3.80318 9.77902 3.53906 9.78199C3.35623 9.77985 3.17386 9.76327 2.99365 9.7324C3.18058 10.3081 3.54234 10.8113 4.02857 11.1719C4.51481 11.5324 5.10135 11.7324 5.70656 11.7441C4.68458 12.5482 3.42281 12.9871 2.1224 12.9907C1.88562 12.9915 1.64904 12.9773 1.41406 12.9482C2.74178 13.8055 4.28905 14.2606 5.86948 14.2587C6.96009 14.27 8.04203 14.0639 9.0521 13.6524C10.0622 13.2409 10.9801 12.6322 11.7523 11.862C12.5245 11.0918 13.1355 10.1754 13.5496 9.16638C13.9637 8.15737 14.1726 7.07596 14.1641 5.98532C14.1641 5.8649 14.1641 5.7374 14.1641 5.6099C14.7199 5.1954 15.1993 4.68725 15.5807 4.10824Z" fill="#391462"/>
</svg>
