<svg width="16" height="16" viewBox="0 0 16 16" fill="none" xmlns="http://www.w3.org/2000/svg">
<g clip-path="url(#clip0_308_1682)">
<path d="M13.6 0H2.4C1.07452 0 0 1.07452 0 2.4V13.6C0 14.9255 1.07452 16 2.4 16H13.6C14.9255 16 16 14.9255 16 13.6V2.4C16 1.07452 14.9255 0 13.6 0Z" fill="#45D354"/>
<path d="M9.62502 8.53104C9.53127 8.46854 9.43752 8.43729 9.34377 8.56229L8.96877 9.06229C8.87502 9.12479 8.81252 9.15604 8.68752 9.09354C8.21877 8.84354 7.56252 8.56229 7.00002 7.62479C6.96877 7.49979 7.03127 7.43729 7.09377 7.37479L7.37502 6.93729C7.43752 6.87479 7.40627 6.81229 7.37502 6.74979L7.00002 5.84354C6.90627 5.59354 6.81252 5.62479 6.71877 5.62479H6.46877C6.40627 5.62479 6.28127 5.65604 6.15627 5.78104C5.46877 6.46854 5.75002 7.43729 6.25002 8.06229C6.34377 8.18729 6.96877 9.31228 8.31252 9.90603C9.31252 10.3435 9.53127 10.281 9.81252 10.2185C10.1563 10.1873 10.5 9.90603 10.6563 9.62478C10.6875 9.53103 10.8438 9.12479 10.7188 9.06229" fill="white"/>
<path d="M8.25 12C6.96875 12 6 11.3125 6 11.3125L4.46875 11.7188L4.84375 10.2188C4.84375 10.2188 4.21875 9.25 4.21875 8.03125C4.21875 5.78125 6.0625 3.90625 8.34375 3.90625C10.4688 3.90625 12.2812 5.5625 12.2812 7.875C12.2812 10.125 10.4688 11.9688 8.25 12ZM3.28125 12.9062L5.875 12.1875C6.62619 12.5721 7.46342 12.7577 8.30676 12.7266C9.1501 12.6956 9.97141 12.4489 10.6923 12.0101C11.4131 11.5713 12.0095 10.9551 12.4245 10.2202C12.8394 9.48535 13.0591 8.65641 13.0625 7.8125C13.0625 5.125 10.9375 2.96875 8.25 2.96875C7.38741 2.97096 6.54045 3.1991 5.79347 3.63047C5.04649 4.06184 4.42554 4.68137 3.99248 5.42738C3.55942 6.17338 3.32935 7.01982 3.32519 7.8824C3.32103 8.74498 3.54291 9.5936 3.96875 10.3438" fill="white"/>
</g>
<defs>
<clipPath id="clip0_308_1682">
<rect width="16" height="16" fill="white"/>
</clipPath>
</defs>
</svg>
